<svg xmlns="http://www.w3.org/2000/svg" xmlns:xlink="http://www.w3.org/1999/xlink" viewBox="0 0 420.06 412.6"><defs><style>.cls-1,.cls-17,.cls-19,.cls-21,.cls-3{fill:none;}.cls-2{clip-path:url(#clip-path);}.cls-19,.cls-3{stroke:#ebebeb;}.cls-17,.cls-19,.cls-21,.cls-3{stroke-miterlimit:10;}.cls-4{fill:#a6a6a6;}.cls-5{fill:#ebebeb;}.cls-6{fill:#ffc727;}.cls-7{fill:#fff;}.cls-8{fill:#263238;}.cls-9{opacity:0.1;}.cls-10{clip-path:url(#clip-path-6);}.cls-11{clip-path:url(#clip-path-7);}.cls-12{fill:#37474f;}.cls-13{fill:#f7a9a0;}.cls-14{clip-path:url(#clip-path-9);}.cls-15{fill:#ff9abb;}.cls-16{fill:#455a64;}.cls-17{stroke:#fff;}.cls-17,.cls-21{stroke-width:0.75px;}.cls-18{fill:#c7c7c7;}.cls-19{stroke-width:0.5px;}.cls-20{fill:#dbdbdb;}.cls-21{stroke:#263238;stroke-dasharray:4 5;}.cls-22{clip-path:url(#clip-path-12);}.cls-23{opacity:0.2;}.cls-24{clip-path:url(#clip-path-14);}.cls-25{clip-path:url(#clip-path-15);}</style><clipPath id="clip-path" transform="translate(-39.97 -47.51)"><rect class="cls-1" width="500" height="500"/></clipPath><clipPath id="clip-path-6" transform="translate(-39.97 -47.51)"><rect class="cls-1" x="361.87" y="250.91" width="33.65" height="44.94"/></clipPath><clipPath id="clip-path-7" transform="translate(-39.97 -47.51)"><rect class="cls-1" x="411.17" y="288.6" width="44.58" height="33.51"/></clipPath><clipPath id="clip-path-9" transform="translate(-39.97 -47.51)"><rect class="cls-1" x="88.48" y="151.13" width="13.88" height="37.93"/></clipPath><clipPath id="clip-path-12" transform="translate(-39.97 -47.51)"><rect class="cls-1" x="379.59" y="189.78" width="66.84" height="32.19"/></clipPath><clipPath id="clip-path-14" transform="translate(-39.97 -47.51)"><rect class="cls-1" x="208.98" y="187.33" width="81.62" height="94.96"/></clipPath><clipPath id="clip-path-15" transform="translate(-39.97 -47.51)"><rect class="cls-1" x="208.98" y="230.52" width="81.62" height="41.84"/></clipPath></defs><title>mobile</title><g id="Layer_2" data-name="Layer 2"><g id="Speech_Bubble" data-name="Speech Bubble"><g class="cls-2"><g class="cls-2"><rect class="cls-3" x="48.8" y="0.5" width="125.64" height="85.64"/><g class="cls-2"><path class="cls-4" d="M98.17,53.1a2.52,2.52,0,1,1-2.52-2.53,2.52,2.52,0,0,1,2.52,2.53" transform="translate(-39.97 -47.51)"/><path class="cls-5" d="M108.46,53.1a2.52,2.52,0,1,1-2.52-2.53,2.52,2.52,0,0,1,2.52,2.53" transform="translate(-39.97 -47.51)"/><path class="cls-6" d="M118.75,53.1a2.52,2.52,0,1,1-2.52-2.53,2.52,2.52,0,0,1,2.52,2.53" transform="translate(-39.97 -47.51)"/><line class="cls-3" x1="48.8" y1="10.52" x2="174.44" y2="10.52"/><rect class="cls-5" x="52.45" y="243.07" width="72.71" height="46.11" transform="translate(-75.11 -33.07) rotate(-7.76)"/><path class="cls-7" d="M121.72,238.37c-2.53,3.18-5.13,6.25-7.69,9.39s-5.19,6.16-7.8,9.22-5.47,6.35-8.22,9.5l-.24.3-7.32,8.34-.37.39-.44-.28c-3.1-2-6.19-4.05-9.27-6.09l-.33-.21c-3.5-2.3-7-4.61-10.47-7-3.33-2.23-6.66-4.51-10-6.78s-6.64-4.6-9.93-7c3.42,2,6.8,4.05,10.2,6.08s6.78,4.14,10.15,6.26q5.64,3.51,11.28,7.14s0,0,0,0q4.23,2.69,8.44,5.4c2.22-2.49,4.45-5,6.68-7.46l0,0q4.46-5,9-9.89,4-4.4,8.1-8.73c2.74-2.87,5.44-5.78,8.21-8.59" transform="translate(-39.97 -47.51)"/><path class="cls-7" d="M81.55,268.69l-.08.09c-.33.38-.66.75-1,1.12-1.6,1.77-3.25,3.48-4.94,5.16-2,2.06-4.17,4.06-6.3,6.05s-4.31,3.9-6.53,5.79-4.47,3.75-6.82,5.49c1.92-2.21,3.95-4.3,6-6.36s4.19-4.06,6.31-6,4.32-3.92,6.54-5.81c1.76-1.5,3.57-3,5.42-4.42l1.3-1,.1-.08" transform="translate(-39.97 -47.51)"/><path class="cls-7" d="M127.58,282.62c-2.74-1.05-5.41-2.24-8-3.47s-5.25-2.52-7.85-3.83-5.16-2.7-7.69-4.14c-2.07-1.17-4.12-2.36-6.12-3.64l-1.28-.82-.1-.07a.28.28,0,0,0,.12,0l1.51.61c2.17.88,4.3,1.83,6.41,2.81,2.65,1.23,5.25,2.52,7.85,3.85s5.16,2.7,7.69,4.14,5.06,2.9,7.51,4.52" transform="translate(-39.97 -47.51)"/><rect class="cls-5" x="393.25" y="65.9" width="41.97" height="66.18" transform="translate(208.45 443.77) rotate(-80.53)"/><path class="cls-7" d="M450.33,83.73c-3.06,2.08-6.15,4-9.22,6.09s-6.17,4-9.27,5.91-6.47,4-9.7,6l-.3.19-8.6,5.27-.43.25-.31-.37c-2.15-2.59-4.28-5.19-6.42-7.79l-.22-.27c-2.42-2.94-4.83-5.89-7.23-8.89-2.28-2.83-4.56-5.71-6.83-8.58s-4.53-5.79-6.75-8.75c2.45,2.63,4.82,5.36,7.23,8s4.77,5.43,7.14,8.19c2.63,3,5.26,6.13,7.87,9.24h0l5.88,7c2.6-1.57,5.21-3.15,7.82-4.69,0,0,0,0,0,0q5.22-3.12,10.45-6.19,4.69-2.73,9.4-5.41c3.15-1.75,6.28-3.56,9.45-5.25" transform="translate(-39.97 -47.51)"/><path class="cls-7" d="M407.23,99.26s-.05,0-.09,0c-.39.24-.78.48-1.17.7q-2.81,1.67-5.68,3.16c-2.35,1.24-4.73,2.4-7.12,3.55s-4.79,2.24-7.23,3.28-4.9,2-7.42,2.93c2.27-1.4,4.6-2.67,6.94-3.91s4.74-2.4,7.12-3.55,4.8-2.25,7.24-3.29c1.95-.83,3.92-1.64,5.91-2.38l1.4-.5.1,0" transform="translate(-39.97 -47.51)"/><path class="cls-7" d="M443.49,123.77c-2.1-1.64-4.1-3.4-6.06-5.18s-3.88-3.61-5.79-5.45-3.76-3.74-5.57-5.67c-1.49-1.57-2.94-3.16-4.34-4.82l-.89-1.05s0-.06-.07-.08a.47.47,0,0,0,.09.06l1.15.94c1.65,1.34,3.24,2.75,4.82,4.17,2,1.78,3.88,3.61,5.78,5.46s3.76,3.74,5.57,5.67,3.62,3.89,5.31,6" transform="translate(-39.97 -47.51)"/></g><g class="cls-2"><path class="cls-5" d="M439.74,434.76c0,14-84.95,25.35-189.74,25.35S60.26,448.76,60.26,434.76s85-25.36,189.74-25.36,189.74,11.36,189.74,25.36" transform="translate(-39.97 -47.51)"/></g><polygon class="cls-8" points="105.02 343.88 52.51 343.97 0 344.21 52.51 344.45 105.02 344.54 210.03 344.71 315.04 344.55 367.55 344.46 420.06 344.21 367.55 343.97 315.04 343.88 210.03 343.71 105.02 343.88"/><g class="cls-2"><path class="cls-6" d="M395.84,326.58s-17.73-4-27.45-13-15.15-25-15.15-25a152.52,152.52,0,0,1,19.89,5.22c1.58,1.7,4.61,5.2,6,8.51a41.55,41.55,0,0,0,0-6.08,27,27,0,0,1,6.32,3.83c8.06,7.05,10.33,26.5,10.33,26.5" transform="translate(-39.97 -47.51)"/><path class="cls-8" d="M364.31,296.4c-2.42-1.68-4.88-3.29-7.28-5a.14.14,0,0,1,.14-.24c4.57,2.73,9.08,5.65,13.44,8.71,1.52,1.06,3,2.17,4.48,3.3l-.3-.52c-.54-.9-1.1-1.77-1.66-2.64a38.5,38.5,0,0,0-3.76-5,.06.06,0,1,1,.08-.08c1.38,1.59,2.76,3.17,4,4.86.6.8,1.16,1.63,1.69,2.48.27.44.54.89.8,1.34l.26.46c2.29,1.8,4.53,3.68,6.66,5.66q2,1.84,3.81,3.81c-.69-2.15-1.29-4.32-2.08-6.43,0-.07.09-.1.11,0,.78,2.22,1.62,4.44,2.22,6.72,1.36,1.47,2.66,3,3.88,4.57l-.06-.29c-.2-.83-.41-1.67-.64-2.5-.43-1.6-.9-3.19-1.44-4.77a27.77,27.77,0,0,0-4.76-9c-.06-.06,0-.15.08-.09a34.42,34.42,0,0,1,6.79,14.19c.19.75.37,1.51.54,2.27.1.4.2.81.27,1.22.54.73,1.06,1.46,1.57,2.21a76.41,76.41,0,0,1,7.5,14.72A171.37,171.37,0,0,1,406.36,354c0,.12-.15.16-.19,0-3.46-10.38-7-20.9-12.95-30.18-1.25-2-2.61-3.84-4.05-5.67a33.38,33.38,0,0,1-8.62-1.71,38.08,38.08,0,0,1-8.64-4.18,51.85,51.85,0,0,1-4.43-3.34.06.06,0,1,1,.07-.1,35.26,35.26,0,0,0,8.13,4.92,44,44,0,0,0,8.95,3c1.31.29,2.64.5,4,.68a73.39,73.39,0,0,0-5.23-5.8c-.59-.59-1.21-1.16-1.83-1.74a42.18,42.18,0,0,0-6.56-3.76c-2.9-1.4-5.76-2.89-8.64-4.35-1.62-.83-3.23-1.67-4.87-2.47-.07,0,0-.14.07-.1,2.91,1.4,5.87,2.72,8.81,4.07,2.77,1.27,5.57,2.54,8.23,4,.12.07.22.14.34.2-2.41-2.09-4.89-4.08-7.44-6-2.35-1.78-4.73-3.52-7.16-5.19" transform="translate(-39.97 -47.51)"/><path class="cls-8" d="M365.32,305.54c1.44.63,2.91,1.19,4.34,1.86s2.86,1.49,4.25,2.31c.06,0,0,.13-.05.1-1.42-.68-2.85-1.31-4.25-2s-2.85-1.49-4.32-2.14c-.07,0,0-.14,0-.11" transform="translate(-39.97 -47.51)"/><path class="cls-6" d="M453.46,237.2a25.32,25.32,0,0,0-5.3,14.73c-.06,1.59.19,3.81.37,6.41A42.08,42.08,0,0,0,437,268.23a21.11,21.11,0,0,1,11.7-2.8,35.61,35.61,0,0,1-.68,5.3,20,20,0,0,0-7.52,1.49,16.75,16.75,0,0,1,6.78,1.35c-3.16,10.06-12.56,20.39-38.51,24.78a54.49,54.49,0,0,1,4.6-36.52c7.77-15.29,40.13-24.63,40.13-24.63" transform="translate(-39.97 -47.51)"/><path class="cls-8" d="M399.75,341.38c.45-4.29,1-8.58,1.68-12.85a258.78,258.78,0,0,1,5.23-25.4,102.06,102.06,0,0,1,3.75-11.57,18.21,18.21,0,0,1-.1-2.08c0-.83,0-1.66,0-2.49,0-1.67.1-3.32.24-5a60.37,60.37,0,0,1,1.59-9.73c.48-1.85,1-3.67,1.57-5.5a.06.06,0,0,1,.12,0,71,71,0,0,0-1.92,9.71,93.21,93.21,0,0,0-.87,9.74c0,.89,0,1.78,0,2.67,0,.38,0,.76,0,1.15a84.58,84.58,0,0,1,4.37-9,110.59,110.59,0,0,1,8.88-13.29,5.48,5.48,0,0,1,.22-1.45c.12-.58.25-1.16.37-1.74.27-1.18.57-2.36.89-3.53.64-2.35,1.5-4.63,2.23-6.95,0-.07.14,0,.12,0-.69,2.3-1.14,4.68-1.67,7-.26,1.15-.51,2.31-.77,3.47-.13.58-.25,1.16-.37,1.74,0,0,0,.09,0,.13,1.05-1.32,2.12-2.63,3.21-3.91,5-5.82,10.39-11.18,15.86-16.5.67-.65,1.36-1.29,2-1.93a.06.06,0,1,1,.08.08c-5.22,5.45-10.37,11-15.24,16.74q-1.74,2.06-3.42,4.17l1.77-1.18c1.51-1,3-1.95,4.62-2.83s3.16-1.74,4.77-2.54,3.45-1.5,5.05-2.43c.07,0,.13.07.06.1a36.94,36.94,0,0,0-4.73,2.62c-1.58.94-3.16,1.88-4.71,2.87s-3.06,1.92-4.57,2.9c-1.27.82-2.51,1.72-3.82,2.48a122.22,122.22,0,0,0-8.31,12.1,89.3,89.3,0,0,0-4.3,8.15l.93-.41,2.38-1c1.52-.68,3.06-1.34,4.59-2,2.91-1.26,5.86-2.42,8.72-3.81a40,40,0,0,0,4.66-2.59c.06,0,.12.06.06.11-5.32,3.66-11.29,6.25-17.18,8.85l-2.55,1.13c-.7.31-1.41.66-2.13.93a91.38,91.38,0,0,0-4.39,12,244.63,244.63,0,0,0-5.64,25.1c-1.49,8.48-2.5,17-3.28,25.58-.09,1.06-.19,2.13-.31,3.2a.34.34,0,0,1-.68,0c.05-4.35.5-8.7.95-13" transform="translate(-39.97 -47.51)"/><path class="cls-8" d="M415.54,269.72c.47-2.64,1.18-5.22,1.89-7.8,0-.07.13,0,.11,0-.65,2.53-1.12,5.12-1.6,7.69s-.92,5.26-1.28,7.9c0,0-.08,0-.08,0a70.92,70.92,0,0,1,1-7.83" transform="translate(-39.97 -47.51)"/><path class="cls-8" d="M426.72,276.88a46.61,46.61,0,0,1,5.64-3.18c.95-.49,1.91-.95,2.87-1.42s2-.87,3-1.37c.07,0,.13.07.06.11-.95.48-1.85,1.05-2.78,1.56s-1.92,1.06-2.88,1.58c-1.9,1-3.77,2.15-5.76,3a.14.14,0,0,1-.14-.25" transform="translate(-39.97 -47.51)"/><g class="cls-9"><g class="cls-10"><path class="cls-8" d="M395.52,295.85s-16.41-3.92-23.94-14.93c-7.2-10.51-9.53-28.43-9.71-30,.3,1.45,3.68,17.11,14.85,24.41,8.56,5.59,16.82,10.18,18.8,20.53" transform="translate(-39.97 -47.51)"/></g></g><path class="cls-8" d="M380.38,267.5a21,21,0,0,1,6.05,10s0,0-.05,0a24.62,24.62,0,0,0-6.08-9.89c-.06,0,0-.14.08-.09" transform="translate(-39.97 -47.51)"/><path class="cls-6" d="M395.52,295.85s-16.41-3.92-23.94-14.93c-7.2-10.51-9.53-28.43-9.71-30a.45.45,0,0,1,0-.11s7.87,11.19,16.14,14,19.9,12.73,17.53,31" transform="translate(-39.97 -47.51)"/><path class="cls-8" d="M364.76,257a67.13,67.13,0,0,0,5.07,8.68,35,35,0,0,0,6.75,7c2.23,1.77,4.59,3.37,6.85,5.11a.41.41,0,0,1-.05-.09q-.64-.94-1.35-1.83c-.94-1.2-2-2.34-3-3.46-2-2.21-4.12-4.38-5.95-6.78a24.91,24.91,0,0,1-2.63-4.23c0-.07.08-.11.12,0,2.66,5.54,8,9.09,11.77,13.78a21.9,21.9,0,0,1,1.51,2.07,8.81,8.81,0,0,1,.95,1.67,34.47,34.47,0,0,1,5.6,5.66,22.85,22.85,0,0,0-.66-3.19,16,16,0,0,0-1.74-4.15c0-.07.06-.14.1-.07a19.11,19.11,0,0,1,1.91,4.13,14.34,14.34,0,0,1,.6,3.54h0a33.74,33.74,0,0,1,2.22,3.45l-.21-1.05c-.32-1.64-.68-3.27-1.11-4.88a29,29,0,0,0-3.95-9.24c0-.07.06-.14.1-.07a35.48,35.48,0,0,1,4.38,9c.52,1.61.94,3.25,1.31,4.9.18.81.34,1.62.5,2.44.08.42.17.84.24,1.28a59.26,59.26,0,0,1,3.78,11.12,163.71,163.71,0,0,1,3.5,20.75,172.58,172.58,0,0,1,1.13,22c0,.93-.07,1.85-.12,2.77,0,.24-.37.27-.38,0-.16-3.64-.25-7.28-.47-10.92s-.53-7.28-.92-10.9a194.89,194.89,0,0,0-3.42-21.22c-1.33-6-3.06-12-6.34-17.3a32.7,32.7,0,0,0-5.92-7c-2.3-2.06-4.81-3.87-7.24-5.79a40.16,40.16,0,0,1-6.65-6.38,52.62,52.62,0,0,1-5.22-8.48c-.38-.74-.78-1.48-1.17-2.22,0-.07.06-.13.1-.07" transform="translate(-39.97 -47.51)"/><path class="cls-8" d="M367.59,259.38a54.64,54.64,0,0,0,3.66,6.39,0,0,0,0,1-.08.05,43.73,43.73,0,0,1-3.69-6.4c0-.07.08-.11.11,0" transform="translate(-39.97 -47.51)"/><path class="cls-6" d="M455.75,288.6s.26,23.32-13.69,30-21.42,1.13-30.89,3.38h0c.37-.56,7.13-10.28,17.89-12.95,11.06-2.76,23.32-10.76,26.68-20.47" transform="translate(-39.97 -47.51)"/><g class="cls-9"><g class="cls-11"><path d="M455.75,288.6s.26,23.32-13.69,30-21.42,1.13-30.89,3.38h0A52.87,52.87,0,0,1,427,317.34c8.79-1.06,25.59-6.79,28.71-28.74" transform="translate(-39.97 -47.51)"/></g></g><path class="cls-8" d="M410.25,322.45a23.44,23.44,0,0,1,5.54-3.76c.3-.14.61-.26.91-.39s.31-.36.47-.53c.42-.44.86-.86,1.31-1.25a19.22,19.22,0,0,1,2.81-2c2.31-1.36,4.84-2.31,7.2-3.58.07,0,.13.08.06.11-1.16.61-2.3,1.28-3.43,1.94s-2.24,1.26-3.31,1.95a24.52,24.52,0,0,0-2.76,2.07c-.25.22-.48.45-.72.69a38.48,38.48,0,0,1,4.71-1.26c2.56-.51,5.14-.88,7.69-1.42a36.75,36.75,0,0,0,3.7-1c1.15-.93,2.31-1.86,3.41-2.87a27.86,27.86,0,0,0,3.6-4c.05-.06.15,0,.1.06a42.67,42.67,0,0,1-5.71,6.31c.6-.23,1.19-.47,1.78-.74a28.72,28.72,0,0,0,11.88-9.89c0-.06.15,0,.1.07a32.65,32.65,0,0,1-9.61,9.23,28.82,28.82,0,0,1-6.07,2.87,57.52,57.52,0,0,1-7.55,1.79,53.28,53.28,0,0,0-7.39,1.75,22.43,22.43,0,0,0-6.2,3.26,29.1,29.1,0,0,0-8.36,10.37,52.18,52.18,0,0,0-4.6,17c0,.25-.41.25-.39,0,.65-9.8,3.27-20,10.83-26.81" transform="translate(-39.97 -47.51)"/><path class="cls-8" d="M426.43,314.84a8.06,8.06,0,0,1,2.87-2.6,10.67,10.67,0,0,0,3.41-2.82c0-.06.15,0,.1.06a11.41,11.41,0,0,1-3,2.7,10.38,10.38,0,0,0-3.28,2.71c0,.06-.13,0-.09-.05" transform="translate(-39.97 -47.51)"/><polygon class="cls-12" points="379.06 292.14 378.43 304.97 376.48 344.15 347.23 344.15 345.28 304.97 344.65 292.14 379.06 292.14"/><polygon class="cls-8" points="379.06 292.14 378.43 304.97 345.28 304.97 344.65 292.14 379.06 292.14"/><rect class="cls-12" x="342.6" y="286.79" width="38.51" height="12.23"/></g><g class="cls-2"><path class="cls-13" d="M64.59,444.46c2.16.69,63.6.05,65.93-1.46.89-.57,1.31-9.52,1.52-20.35.05-2.34.08-4.76.1-7.22.15-15.93-.07-32.84-.07-32.84L91,382.91l1.21,32.83.26,7.21S69,433.72,66.64,435.65s-4.2,8.11-2,8.81" transform="translate(-39.97 -47.51)"/><path class="cls-5" d="M64.59,444.46c2.16.7,63.6,0,65.93-1.45.89-.58,1.32-9.53,1.52-20.36.05-2.34.09-4.76.1-7.21s0-5.08,0-7.59H91.87l.29,7.89.27,7.2S69,433.72,66.64,435.64s-4.2,8.12-2,8.82" transform="translate(-39.97 -47.51)"/><path class="cls-6" d="M64.41,444.55c2.16.7,64,.05,66.29-1.47,1.09-.7,1.5-13.84,1.63-27.72l-40.19.31.26,7.25s-23.55,10.83-25.94,12.76-4.22,8.17-2,8.87" transform="translate(-39.97 -47.51)"/><path class="cls-8" d="M65.27,442.07c10.35-.37,52.15-.86,62.42-.43.08,0,.08.06,0,.07-10.26.58-52.06.73-62.42.53-.22,0-.22-.16,0-.17" transform="translate(-39.97 -47.51)"/><path class="cls-8" d="M90.91,420.63c4.07-.8,9.06-.23,12.21,2.64.12.11,0,.28-.17.24a57.74,57.74,0,0,0-12-2.36.26.26,0,0,1,0-.52" transform="translate(-39.97 -47.51)"/><path class="cls-8" d="M88,422.44c4.07-.81,9.06-.23,12.2,2.64.13.11,0,.28-.17.24A57,57,0,0,0,88,423a.26.26,0,0,1,0-.51" transform="translate(-39.97 -47.51)"/><path class="cls-8" d="M85.07,424.24c4.06-.8,9.06-.23,12.2,2.64.12.11,0,.28-.17.24a57.13,57.13,0,0,0-12-2.36.26.26,0,0,1,0-.52" transform="translate(-39.97 -47.51)"/><path class="cls-8" d="M82.14,426c4.07-.8,9.06-.23,12.21,2.64.12.12,0,.29-.17.25a57.11,57.11,0,0,0-12-2.37.26.26,0,0,1,0-.52" transform="translate(-39.97 -47.51)"/><path class="cls-8" d="M85.17,417.07c2.91,2.21,6.67,3.09,10,4.3a.51.51,0,0,0,.63-.52.11.11,0,0,0,.1-.15,21.84,21.84,0,0,0-6.38-9.27c-1.71-1.41-4.71-2.37-6.29-.15s.2,4.5,1.89,5.79M84.1,413.8c-.77-4.46,4.06-2.17,5.28-1.07A22.75,22.75,0,0,1,91.57,415a63.17,63.17,0,0,1,3.84,5.33c-1.62-.7-3.29-1.25-4.94-1.88-2-.76-6-2.23-6.37-4.69" transform="translate(-39.97 -47.51)"/><path class="cls-8" d="M109.49,414.35c-1-2.53-4.15-2.3-6.15-1.33A21.74,21.74,0,0,0,95,420.54a.1.1,0,0,0,0,.16c-.06.3.13.69.5.65,3.57-.38,7.43-.35,10.78-1.82,2-.85,4.15-2.78,3.19-5.18m-8.68,5.31c-1.75.23-3.5.38-5.24.67,1.64-1.46,3.2-3,5-4.28a23.3,23.3,0,0,1,2.66-1.73c1.45-.77,6.68-1.87,4.89,2.29-1,2.29-5.21,2.78-7.3,3.05" transform="translate(-39.97 -47.51)"/><path class="cls-12" d="M144.43,206.67s-12,100.94-12.24,102.3c0,.18,3.4,107.88,3.4,107.88H90.77s-1.21-94.38.45-110.34c2.12-20.36,15.48-99.84,15.48-99.84Z" transform="translate(-39.97 -47.51)"/><path class="cls-8" d="M133,407.63c-6.89-.14-4.91-.2-11.8-.26-3.37,0-25.52-.23-28.66.29-.07,0-.07.13,0,.14,3.14.52,25.29.33,28.66.3,6.89-.07,4.91-.12,11.8-.27a.1.1,0,0,0,0-.2" transform="translate(-39.97 -47.51)"/><path class="cls-8" d="M126.27,300.7c.63-5.7,1.45-11.39,2.19-17.08q2.26-17.17,4.57-34.37c1.75-13,3.61-25.95,5.45-38.92,0-.16.27-.15.25,0q-2.08,17.37-4.21,34.73c-1.42,11.46-2.93,22.92-4.43,34.37s-3.44,22.75-3.39,34.23c0,5.78.28,11.55.44,17.33s.33,11.55.48,17.33c.35,13.08.85,41.06.72,54.15a.13.13,0,0,1-.26,0c-.8-11.66-1-38.24-1.43-49.92s-.79-23.11-1-34.67a131.41,131.41,0,0,1,.66-17.18" transform="translate(-39.97 -47.51)"/><path class="cls-13" d="M172.46,442.39c2.17-.63,52.68-35.63,53.76-38.18.42-1-4.25-8.62-10.15-17.71-1.28-2-2.6-4-4-6-8.81-13.27-18.48-27.15-18.48-27.15l-33.85,23.32,19.41,26.5,4.26,5.82s-13.35,22-14.23,25,1.07,9.08,3.25,8.44" transform="translate(-39.97 -47.51)"/><path class="cls-5" d="M172.46,442.39c2.17-.63,52.68-35.63,53.76-38.17.42-1-4.24-8.63-10.16-17.71-1.26-2-2.59-4-4-6s-2.82-4.23-4.21-6.31l-33.38,22.61,4.66,6.36,4.27,5.82S170.09,431,169.2,434s1.09,9.07,3.26,8.44" transform="translate(-39.97 -47.51)"/><path class="cls-6" d="M172.35,442.57c2.19-.63,53-35.83,54.07-38.39.5-1.19-6.53-12.3-14.2-23.87l-33.1,22.8L183.4,409S170,431.14,169.08,434.08s1.09,9.13,3.27,8.49" transform="translate(-39.97 -47.51)"/><path class="cls-8" d="M171.67,440c8.37-6.11,42.71-30,51.44-35.36.08-.05.11,0,0,.05-8.16,6.24-42.69,29.81-51.38,35.45-.18.12-.27,0-.1-.14" transform="translate(-39.97 -47.51)"/><path class="cls-8" d="M180.89,407.91c2.91-3,7.37-5.27,11.58-4.66.16,0,.13.25,0,.29a57.37,57.37,0,0,0-11.28,4.78.26.26,0,0,1-.3-.41" transform="translate(-39.97 -47.51)"/><path class="cls-8" d="M179.48,411c2.91-3,7.37-5.27,11.58-4.66.17,0,.13.26,0,.3a57.94,57.94,0,0,0-11.28,4.77.26.26,0,0,1-.3-.41" transform="translate(-39.97 -47.51)"/><path class="cls-8" d="M178.07,414.17c2.92-2.94,7.37-5.27,11.58-4.66.17,0,.13.26,0,.3a57,57,0,0,0-11.27,4.78.26.26,0,0,1-.31-.42" transform="translate(-39.97 -47.51)"/><path class="cls-8" d="M176.66,417.31c2.92-2.95,7.37-5.28,11.58-4.66.17,0,.13.25,0,.29A57,57,0,0,0,177,417.72a.26.26,0,0,1-.31-.41" transform="translate(-39.97 -47.51)"/><path class="cls-8" d="M174.14,408.18c3.64.2,7.25-1.19,10.73-2.08a.5.5,0,0,0,.23-.78.11.11,0,0,0,0-.18,21.93,21.93,0,0,0-10.48-4.1c-2.21-.2-5.23.68-5.29,3.41-.06,2.57,2.68,3.61,4.81,3.73m-2.72-2.11c-3.14-3.26,2.14-4.07,3.77-3.85a23.51,23.51,0,0,1,3.1.69,60.63,60.63,0,0,1,6.17,2.26c-1.73.33-3.42.81-5.14,1.21-2,.47-6.18,1.49-7.9-.31" transform="translate(-39.97 -47.51)"/><path class="cls-8" d="M192.74,392.29c-2.25-1.53-4.72.42-5.83,2.34a21.75,21.75,0,0,0-2.72,10.92.11.11,0,0,0,.14.11.51.51,0,0,0,.77.26c2.74-2.32,6-4.46,7.91-7.55,1.13-1.81,1.87-4.64-.27-6.08m-4.2,9.26c-1.32,1.18-2.69,2.28-4,3.5.54-2.13,1-4.27,1.73-6.34a23.61,23.61,0,0,1,1.24-2.93c.76-1.45,4.47-5.3,5.32-.85.47,2.45-2.75,5.22-4.32,6.62" transform="translate(-39.97 -47.51)"/><path class="cls-12" d="M106.7,206.67s7,21.51,14.87,32.36c0,0,2.06,79.54,5.27,88.68,5.33,15.13,46.75,76.32,46.75,76.32l37.95-26.22s-39.69-57.45-41.77-62.95c-1.37-3.65-5.38-66.7-4.81-68.28,7-19.08-3.53-39.91-3.53-39.91Z" transform="translate(-39.97 -47.51)"/><path class="cls-8" d="M203.45,369.82c-5.75,3.79-4.16,2.62-9.86,6.48-2.8,1.88-21.14,14.3-23.43,16.52a.07.07,0,0,0,.08.11c2.89-1.35,21-14.09,23.76-16,5.63-4,4-2.89,9.56-6.92.1-.07,0-.23-.11-.16" transform="translate(-39.97 -47.51)"/><path class="cls-8" d="M160.16,244.28c.56-2.48,1.19-4.95,1.57-7.47a37.36,37.36,0,0,0,.32-7.69,75.71,75.71,0,0,0-2.81-15.35c-.34-1.25-.7-2.5-1.07-3.75-.07-.22.28-.31.35-.09a102.17,102.17,0,0,1,3.86,15,41.59,41.59,0,0,1-.38,14.8c-1,5-2.5,9.93-2.3,15.11.1,2.69,3.3,52.66,3.3,55.26a21.27,21.27,0,0,0,1,7.52,39.37,39.37,0,0,0,3.54,6.54c1.37,2.24,2.75,4.46,4.14,6.68,5.47,8.74,18,26.43,23.82,34.93l2.23,3.23c.08.11-.1.21-.18.1-6.13-8.45-19-26-24.6-34.82-2.77-4.3-5.6-8.61-8.12-13.07a18.65,18.65,0,0,1-2.42-6.72c-.32-2.42-3.7-60.29-3.5-62.89a49.8,49.8,0,0,1,1.25-7.29" transform="translate(-39.97 -47.51)"/><path class="cls-8" d="M142.84,214c.95,3.87.81,8.71,3.56,11.9a9.52,9.52,0,0,0,5.35,2.78,25.8,25.8,0,0,0,7,.38.09.09,0,0,1,0,.17c-4.16,1.33-9.93,1.11-13.08-2.32a10.57,10.57,0,0,1-2.4-5.73,53.73,53.73,0,0,1-.58-7.17.09.09,0,0,1,.17,0" transform="translate(-39.97 -47.51)"/><path class="cls-8" d="M121.29,239.17a.31.31,0,0,1,.61,0c.16,1.75.13,3.53.19,5.29s.08,3.34.13,5c.09,3.44.16,6.87.24,10.31.16,6.87.36,13.73.65,20.6s.59,13.72.94,20.58c.17,3.43.38,6.86.58,10.28a74.37,74.37,0,0,0,1,9.87,58.78,58.78,0,0,0,7.44,19c.09.13-.13.24-.22.11a45.11,45.11,0,0,1-7.76-16.47c-1.55-6.42-1.72-13.07-2.09-19.63-.78-13.86-1.29-27.72-1.64-41.6-.09-3.89-.18-7.79-.19-11.69,0-1.9,0-3.8,0-5.7s-.06-4,.1-6" transform="translate(-39.97 -47.51)"/><path class="cls-8" d="M114.29,235.81a86.39,86.39,0,0,1,13.19,5.86.15.15,0,0,1-.13.26c-4.44-1.82-9-3.56-13.3-5.61-.34-.16-.11-.62.24-.51" transform="translate(-39.97 -47.51)"/><path class="cls-8" d="M113,206.79c0-.14.28-.18.28,0a132.32,132.32,0,0,0,.75,14.16c.2,2.18,2,14.24,6,13.36.67-.14,1-.77,1.11-1.72a14.69,14.69,0,0,0-.53-3.7c-.44-2.53-.79-5.06-1-7.61a66.1,66.1,0,0,1,.16-14.27.13.13,0,0,1,.26,0,123.54,123.54,0,0,0,1.21,19.69c.49,3.14,2.15,7.86-1.29,8.34s-5.77-7.42-6.2-9.58a69.12,69.12,0,0,1-.74-18.67" transform="translate(-39.97 -47.51)"/><path class="cls-8" d="M119.88,234.62a20.13,20.13,0,0,1,.9,2.5,5.42,5.42,0,0,1,.37,2c0,.14-.2.15-.28.06a7.14,7.14,0,0,1-.92-2c-.3-.77-.62-1.54-.9-2.32-.18-.52.61-.79.83-.29" transform="translate(-39.97 -47.51)"/><path class="cls-13" d="M94.14,156.14c-5.39,9-25.52,48.45-20.88,59.68,2.86,6.91,10.84,4.32,15.2,1.74,5.11-3,13-47.34,13.55-56.17.48-8.41-2.57-14.12-7.87-5.25" transform="translate(-39.97 -47.51)"/><path class="cls-6" d="M75.68,192.22l23.4-5.77a225,225,0,0,0,3.2-26.36c.75-13.51-4.12-11.83-13.22,2.55a126.65,126.65,0,0,0-13.38,29.58" transform="translate(-39.97 -47.51)"/><path class="cls-7" d="M84.19,179.55a9.4,9.4,0,0,0-.63,2.66,10,10,0,0,0,1.29-2.4,9.35,9.35,0,0,0,.63-2.64,10.21,10.21,0,0,0-1.29,2.38M97.1,152.23h0a7.58,7.58,0,0,0-.42,2,9.77,9.77,0,0,0,1.3-2.39c0-.12.08-.22.11-.34a10.56,10.56,0,0,0-1,.74M96,166.56A10,10,0,0,0,93.72,168a9.61,9.61,0,0,0,2.61-.78,9.34,9.34,0,0,0,2.32-1.42,10,10,0,0,0-2.61.78" transform="translate(-39.97 -47.51)"/><path class="cls-8" d="M98.1,182.11A176.41,176.41,0,0,1,79,186.87c-.08,0-.09-.11,0-.12,1.56-.31,11.91-3.33,19.12-4.78.09,0,.09.11,0,.14" transform="translate(-39.97 -47.51)"/><g class="cls-9"><g class="cls-14"><path d="M102.28,160.09a225,225,0,0,1-3.2,26.36l-10.6,2.61,12.29-37.93c1.26.88,1.79,3.82,1.51,9" transform="translate(-39.97 -47.51)"/></g></g><path class="cls-6" d="M103.14,218.67l60.56-12s-19.93-41-49.2-56.87c-6.77-3.68-17.24-1-18.29,5.45-3.59,22.22,6.93,63.42,6.93,63.42" transform="translate(-39.97 -47.51)"/><path class="cls-7" d="M112.67,164.85a9.1,9.1,0,0,0-.64,2.65,9.44,9.44,0,0,0,1.3-2.39,9.61,9.61,0,0,0,.64-2.65,10,10,0,0,0-1.3,2.39m-5.49,36.38a9.28,9.28,0,0,0-.64,2.64,9.41,9.41,0,0,0,1.29-2.39,10,10,0,0,0,.64-2.65,9.46,9.46,0,0,0-1.29,2.4m20.61-3.77a9.78,9.78,0,0,0-.64,2.65,10.15,10.15,0,0,0,1.31-2.39,9.43,9.43,0,0,0,.63-2.64,9.86,9.86,0,0,0-1.3,2.38m-31-44c0,.25-.08.49-.1.75a9.77,9.77,0,0,0,1.3-2.39,1.42,1.42,0,0,0,0-.16,7,7,0,0,0-1.25,1.8m42.39,16.9c-.25-.13-.5-.23-.75-.34a9.43,9.43,0,0,0-2.64-.63,9.22,9.22,0,0,0,2.38,1.3,12.71,12.71,0,0,0,1.73.5c-.23-.28-.47-.56-.72-.83m3.18,33.73a9.27,9.27,0,0,0-2.64-.63,10.43,10.43,0,0,0,5,1.92,10.14,10.14,0,0,0-2.4-1.29m-36.23-24.73a9.65,9.65,0,0,0-2.64-.66,9.63,9.63,0,0,0,2.39,1.31,9.42,9.42,0,0,0,2.65.63,9.43,9.43,0,0,0-2.4-1.28m49,15.34a9.77,9.77,0,0,0-1.42-2.32,10.52,10.52,0,0,0,2.19,4.93,9.85,9.85,0,0,0-.77-2.61m-28.85-19a9.77,9.77,0,0,0-1.42-2.32,9.27,9.27,0,0,0,.78,2.61,9.61,9.61,0,0,0,1.41,2.32,10,10,0,0,0-.77-2.61m14.34,11.05a9.24,9.24,0,0,0-2.32,1.41,9.11,9.11,0,0,0,2.6-.78,9,9,0,0,0,2.32-1.41,9.11,9.11,0,0,0-2.6.78M118.43,210a9.27,9.27,0,0,0-2.32,1.42,9.44,9.44,0,0,0,2.6-.78,9.58,9.58,0,0,0,2.32-1.42,9.44,9.44,0,0,0-2.6.78M96,166.56l-.57.29v.69a9,9,0,0,0,.86-.34,9.34,9.34,0,0,0,2.32-1.42,10,10,0,0,0-2.61.78m20.44,22.7a9,9,0,0,0-2.32,1.42,9.11,9.11,0,0,0,2.6-.78,9,9,0,0,0,2.32-1.42,9.91,9.91,0,0,0-2.6.78m6.93-33.7a1.18,1.18,0,0,0-.18.13,1.37,1.37,0,0,0,.28-.05l-.1-.08" transform="translate(-39.97 -47.51)"/><path class="cls-13" d="M114,153c12.33-3.9,44.38-12.59,49.54-22.25,6.78-12.68,1.84-41.08-1.58-45.85-1.88-2.63-19.79,4.52-21.67,7.42s1.53,24.93.85,27.43S118.31,136,108.58,143.94c-12.27,10-4.26,12.12,5.41,9.06" transform="translate(-39.97 -47.51)"/><path class="cls-6" d="M146.56,143.32,126.47,130s-7.38,5.27-17.83,13.87-9.8,14,6.94,11,31-11.53,31-11.53" transform="translate(-39.97 -47.51)"/><path class="cls-7" d="M130.9,141.38a9.43,9.43,0,0,0-2.64-.63,10.05,10.05,0,0,0,2.38,1.3,9.5,9.5,0,0,0,2.65.63,9.77,9.77,0,0,0-2.39-1.3m-17.58,5.53a9.46,9.46,0,0,0-1.42-2.32,9.6,9.6,0,0,0,.77,2.61,9.46,9.46,0,0,0,1.42,2.32,9.49,9.49,0,0,0-.77-2.61" transform="translate(-39.97 -47.51)"/><path class="cls-8" d="M123.93,133.68a177.54,177.54,0,0,1,16.46,10.84c.06,0,0,.14-.09.09-1.28-1-10.51-6.51-16.46-10.83-.07-.05,0-.15.09-.1" transform="translate(-39.97 -47.51)"/><path class="cls-8" d="M115.58,154.85a19,19,0,0,1,2.59-.74,15.78,15.78,0,0,1,2.67-.4,10.78,10.78,0,0,1-2.56.88,9.75,9.75,0,0,1-2.7.26" transform="translate(-39.97 -47.51)"/><path class="cls-8" d="M116.93,155.38a16.33,16.33,0,0,1,2-1.19,2.56,2.56,0,0,1-.9.77,3.92,3.92,0,0,1-1.11.42" transform="translate(-39.97 -47.51)"/><path class="cls-13" d="M80.05,220.1c-7.26-.64-8.68-11.23-5-14.76,9.21-8.84,28.29-15,35.83-17.09,3.36-.92,28,7.12,24.94,12.49-4.93,8.63-41.13,20.66-55.76,19.36" transform="translate(-39.97 -47.51)"/><path class="cls-13" d="M111.17,196.87a41.82,41.82,0,0,1,2.34-16c1.27-3.63,5.34-9.47,7.23-11.51,2.83-3.05,16.61-14,19.34-10.73,2.47,3-10.57,10.89-10.57,10.89s12.45-9.15,14.76-5-13.59,11.1-13.59,11.1,13-9.11,14.71-4.47c1.3,3.5-12.76,10.63-12.76,10.63s11.23-7.75,12.71-4.21c1.65,3.92-10.92,11.32-10.92,11.32,1.45.94,4.19,7.64.78,12.83-.59.9-24-4.8-24-4.8" transform="translate(-39.97 -47.51)"/><path class="cls-8" d="M125,172.37c1.43-1.12,2.86-2.27,4.38-3.27s3.07-1.94,4.68-2.79a31.06,31.06,0,0,1,6.55-2.72,66.5,66.5,0,0,0-11,5.94c-1.52,1-3.08,1.91-4.6,2.9,0,0-.07,0,0-.06" transform="translate(-39.97 -47.51)"/><path class="cls-8" d="M128.5,177.92c1.88-1.36,3.7-2.78,5.64-4.06s3.87-2.31,5.89-3.44c.15-.09.15,0,0,.12-2,1.21-3.69,2.49-5.65,3.73s-3.95,2.4-5.85,3.7c0,0-.05,0,0-.05" transform="translate(-39.97 -47.51)"/><path class="cls-8" d="M130.65,183.22a54.33,54.33,0,0,1,9.16-5.74c.16-.08.14.06,0,.16-3,1.78-5.53,3.36-9.06,5.68-.06,0-.14,0-.08-.1" transform="translate(-39.97 -47.51)"/><path class="cls-8" d="M143.2,168.06a6.66,6.66,0,0,0,1.13-1.69,2.68,2.68,0,0,0,0-1.83s-.07,0-.06,0a2.12,2.12,0,0,1-.36,2,9.69,9.69,0,0,1-1.16,1.48,13.72,13.72,0,0,1-1.42,1.33,17.17,17.17,0,0,1-1.52,1.18h0a0,0,0,0,0,0,0h0s0,0,0,0a6.8,6.8,0,0,1,2.87-.72,3,3,0,0,1,1.4.19,1.8,1.8,0,0,1,.89,2.21,3.39,3.39,0,0,1-.73,1.07,26.26,26.26,0,0,1-2.08,2.14c-.41.37-.83.73-1.26,1.07s-.89.66-1.29,1c0,0,.06.09.09.08.38-.11,3.17-1.19,4.4-.78a1.6,1.6,0,0,1,1.17,1.44,3.21,3.21,0,0,1-.62,2,24.13,24.13,0,0,1-2.35,2.81s0,.06,0,0c.64-.63,2-2,2.56-2.69a3.21,3.21,0,0,0,.75-2.07,2,2,0,0,0-1-1.68,3.25,3.25,0,0,0-2.09-.1,23.32,23.32,0,0,0-2.48.81c.32-.2,1.79-1.31,2.21-1.67a23.07,23.07,0,0,0,2.35-2.29,2.44,2.44,0,0,0,.72-2.56,2.22,2.22,0,0,0-2.17-1.35,5.68,5.68,0,0,0-2.13.4c.19-.12.38-.25.56-.39a10.13,10.13,0,0,0,1.53-1.47" transform="translate(-39.97 -47.51)"/><path class="cls-8" d="M77.67,203.08A37.38,37.38,0,0,1,82,199.77,50.53,50.53,0,0,1,86.61,197a46.66,46.66,0,0,1,4.92-2.28A41.84,41.84,0,0,1,96.67,193c-1.64.75-3.3,1.45-4.91,2.24s-3.22,1.57-4.8,2.41-3.14,1.72-4.7,2.61-3.07,1.84-4.59,2.82" transform="translate(-39.97 -47.51)"/><path class="cls-13" d="M100.2,160.81c3.33.07,7.53-6.44,8.83-10.82.09-.3-.74-2.55-1.82-6-.65-2.06-1.33-4.37-1.79-6.53-.09-.44-12.8,6.19-12.8,6.19a35.49,35.49,0,0,1,3.08,8,6,6,0,0,1,.1.91.86.86,0,0,0,0,.15c.09,1.74,1.17,8,4.39,8.06" transform="translate(-39.97 -47.51)"/><path class="cls-8" d="M97.21,152.52a8.66,8.66,0,0,1-1.4.23.86.86,0,0,1,0-.15,6,6,0,0,0-.1-.91,35.49,35.49,0,0,0-3.08-8s10.31-5.38,12.43-6.12c.11,2.58.09,13-7.84,14.94" transform="translate(-39.97 -47.51)"/><path class="cls-13" d="M100.56,121.24c3.22,4,6.13,18.08,4.08,22.31-3,6.14-10.48,9.64-16.36,5.46-5.7-4-9.16-22.48-6.62-26.6,3.73-6.06,14.14-7,18.9-1.17" transform="translate(-39.97 -47.51)"/><path class="cls-8" d="M93.11,134s.08,0,.09.07c.17.95.53,2,1.45,2.15,0,0,0,0,0,.06-1.08.07-1.54-1.35-1.55-2.28" transform="translate(-39.97 -47.51)"/><path class="cls-8" d="M93.75,132.85c1.5-.44,2.26,2.6.87,3s-2.13-2.63-.87-3" transform="translate(-39.97 -47.51)"/><path class="cls-8" d="M87.48,135.3s-.06.07,0,.1c.27.94.42,2-.36,2.58,0,0,0,.06,0,.05,1-.41.79-1.89.39-2.73" transform="translate(-39.97 -47.51)"/><path class="cls-8" d="M86.39,134.53c-1.54.27-.89,3.33.54,3.08s.75-3.3-.54-3.08" transform="translate(-39.97 -47.51)"/><path class="cls-8" d="M94.57,130.75a11.13,11.13,0,0,1-1.28.08,2.08,2.08,0,0,1-1.33-.16.67.67,0,0,1-.22-.78,1.65,1.65,0,0,1,1.46-.8,2.38,2.38,0,0,1,1.68.41.7.7,0,0,1-.31,1.25" transform="translate(-39.97 -47.51)"/><path class="cls-8" d="M84.84,133.3a10.23,10.23,0,0,0,1.12-.62,2.09,2.09,0,0,0,1-.84.66.66,0,0,0-.23-.78,1.65,1.65,0,0,0-1.66.1,2.38,2.38,0,0,0-1.2,1.26.7.7,0,0,0,.94.88" transform="translate(-39.97 -47.51)"/><path class="cls-8" d="M95.83,142.27c-.16.28-.31.64-.65.75a2.57,2.57,0,0,1-1.07,0s0,0,0,.06a1.31,1.31,0,0,0,1.33.21,1,1,0,0,0,.53-1c0-.06-.08-.06-.11,0" transform="translate(-39.97 -47.51)"/><path class="cls-8" d="M94.14,139.71a3.27,3.27,0,0,1-1.78,2,4,4,0,0,1-1.14.34.83.83,0,0,1-.22,0l-.22,0a.25.25,0,0,1-.24-.16h0a.3.3,0,0,1,0-.1h0l0-.08c-.2-.72-.41-1.84-.41-1.84-.23.2-1.42,1.14-1.5.76a50,50,0,0,1-1.2-10,.09.09,0,0,1,.18,0c.7,3,.86,6.17,1.52,9.22a5.92,5.92,0,0,1,1.39-.84c.11,0,.36,2.17.48,2.49a.08.08,0,0,0,0,0A4.59,4.59,0,0,0,94,139.65c0-.08.15,0,.11.06" transform="translate(-39.97 -47.51)"/><path class="cls-8" d="M91.65,141.55a3.69,3.69,0,0,0,1.75.69,1.69,1.69,0,0,0,1-.22c.65-.39.48-1.05.19-1.56a3.9,3.9,0,0,0-.57-.76,4.74,4.74,0,0,1-2.36,1.85" transform="translate(-39.97 -47.51)"/><path class="cls-15" d="M93.4,142.24a1.69,1.69,0,0,0,1-.22c.65-.39.48-1.05.19-1.56a1.72,1.72,0,0,0-1.18,1.78" transform="translate(-39.97 -47.51)"/><path class="cls-8" d="M106.21,131.45c-3.55,1.58-7-2.08-7.44-5.88,0,0-9.22,4.79-12.5-2.82a8.1,8.1,0,0,1-5,5.77l0,3.26c-1.1.07-3.18-2.37-1.55-5.46a9.84,9.84,0,0,1,.78-7.3,5.63,5.63,0,0,1,5.41-2.86,8.52,8.52,0,0,1,5.32-3.56,7.28,7.28,0,0,1,6.38,1.89s5.13-.82,7.18,2.29a7.54,7.54,0,0,1,1.12,6s1.69.9,2.13,4c.28,2-.69,4.13-1.75,4.6" transform="translate(-39.97 -47.51)"/><path class="cls-8" d="M86.23,122a9.61,9.61,0,0,0,.67,1.91,8.37,8.37,0,0,0,1,1.71,5.27,5.27,0,0,0,3.26,2,8.35,8.35,0,0,0,3.89-.4c.62-.24,1.27-.45,1.88-.73s1.21-.6,1.83-.88c-.57.37-1.15.72-1.73,1.09s-1.23.58-1.86.87a8.34,8.34,0,0,1-4.09.52,5.49,5.49,0,0,1-3.47-2.23A8.31,8.31,0,0,1,86.23,122" transform="translate(-39.97 -47.51)"/><path class="cls-8" d="M97.53,114.49a9.64,9.64,0,0,1,3.85-.52,5.72,5.72,0,0,1,3.62,1.54,6.25,6.25,0,0,1,1.12,1.65,5.81,5.81,0,0,1,.58,1.9,5.33,5.33,0,0,1-.87,3.76,5.89,5.89,0,0,0,.51-3.7,6.47,6.47,0,0,0-1.68-3.27,5.09,5.09,0,0,0-1.51-1,7.92,7.92,0,0,0-1.81-.48,12.23,12.23,0,0,0-3.81.16" transform="translate(-39.97 -47.51)"/><path class="cls-8" d="M85.83,116.16a9.45,9.45,0,0,0-3,.48,5.9,5.9,0,0,0-2.51,1.59A6,6,0,0,0,79,120.91a10.55,10.55,0,0,0-.19,3.08,7.77,7.77,0,0,1-.17-3.15,5.73,5.73,0,0,1,1.32-2.92,5.62,5.62,0,0,1,2.77-1.63,7.29,7.29,0,0,1,3.15-.13" transform="translate(-39.97 -47.51)"/><path class="cls-8" d="M82.87,128.29a10.94,10.94,0,0,0,2.36-2.65,6.67,6.67,0,0,0,.71-1.59,8,8,0,0,0,.28-1.77,4.43,4.43,0,0,1,.07,1.85,4.69,4.69,0,0,1-.65,1.76,6.11,6.11,0,0,1-1.21,1.42,5.78,5.78,0,0,1-1.56,1" transform="translate(-39.97 -47.51)"/><path class="cls-16" d="M85.94,141.23c-1.6.34-3.31-1.35-3.83-3.77s.38-4.66,2-5,3.32,1.35,3.83,3.77-.37,4.66-2,5m-1.73-8.18c-1.28.27-1.95,2.19-1.51,4.28s1.84,3.58,3.12,3.31,2-2.19,1.5-4.28-1.84-3.58-3.11-3.31" transform="translate(-39.97 -47.51)"/><path class="cls-16" d="M95.76,139.15a4.49,4.49,0,1,1,3.17-5.25,4.36,4.36,0,0,1-3.17,5.25M94,131A3.89,3.89,0,1,0,98.34,134,3.75,3.75,0,0,0,94,131" transform="translate(-39.97 -47.51)"/><path class="cls-16" d="M90.86,135.19c-2.36-.3-3.2.63-3.21.64l-.46-.39c0-.05,1-1.19,3.74-.84Z" transform="translate(-39.97 -47.51)"/><path class="cls-16" d="M98.55,133.58l-.23-.56c.37-.15,6.25-2.61,7.21-2.87s3.69.56,4,.65l-.18.57a11.51,11.51,0,0,0-3.61-.65h0c-.74.2-4.06,1.57-7.14,2.85" transform="translate(-39.97 -47.51)"/><path class="cls-13" d="M102.37,133s1.36-5.42,3.71-5.09,2.46,7.38.5,9.1a2.48,2.48,0,0,1-3.58-.06Z" transform="translate(-39.97 -47.51)"/><path class="cls-8" d="M106.06,129.92a0,0,0,0,1,0,.06c-1.36,1.25-1.63,3.06-1.64,4.82a1.37,1.37,0,0,1,1.78-1.08c.06,0,0,.09,0,.1a1.54,1.54,0,0,0-1.38,1.1,7.39,7.39,0,0,0-.26,1.55c0,.17-.31.19-.32,0v0c-.82-2-.32-5.48,1.79-6.52" transform="translate(-39.97 -47.51)"/><path class="cls-8" d="M95.36,155.1s0,0,0,0c.72,2.64,2.57,8.71,6.8,6.88a9.93,9.93,0,0,0,4-3.73,24.64,24.64,0,0,0,2.5-4.73,35.55,35.55,0,0,0,1.91-5.63c0-.08.14,0,.13,0a26.39,26.39,0,0,1-1.48,5.74,21.13,21.13,0,0,1-2.66,5.2,10,10,0,0,1-4.27,3.78,3.71,3.71,0,0,1-4.42-1.26,14.27,14.27,0,0,1-2.5-6.28" transform="translate(-39.97 -47.51)"/><path class="cls-13" d="M137.49,95.44a4,4,0,0,1,1.07-4.58s-3.74-.75-4.4-3.82c-.34-1.59,1.91-3.54,1.91-3.54s-3-.73-3.38-3.5c-.34-2.21,2-3.84,2-3.84s-2.51-2-2.12-4.39c.79-4.79,19.51-9.8,24.2-3.74,2.18,2.82-2.46,3.8-2.46,3.8s7,.19,8.1,4-5,4.71-5,4.71,6.78.24,7.52,4.29c.77,4.22-5.48,4.09-5.48,4.09s4.9,1.68,4.75,4.92c-.25,5.35-10.33,1.4-14.19,3.47l.06,7.17s-11.29-5.85-12.55-9" transform="translate(-39.97 -47.51)"/><path class="cls-8" d="M135,75.85c-.06,0-.1-.06-.05-.09a34,34,0,0,1,19.59-4c.22,0,.26.39,0,.4A69.87,69.87,0,0,0,135,75.85" transform="translate(-39.97 -47.51)"/><path class="cls-8" d="M136,83.48c-.07,0-.11-.09,0-.12,6-3.2,14.22-4.89,21.63-3.07.25.06.42.37.12.32-5-.83-15.81.75-21.71,2.87" transform="translate(-39.97 -47.51)"/><path class="cls-8" d="M159.92,89.2c-7.17-1.46-14.12-.49-21.12,1.52-.09,0-.12-.11-.05-.15,3.17-1.91,7.76-2.73,11.38-3.07A19.42,19.42,0,0,1,160,89c.13.06.1.28-.05.25" transform="translate(-39.97 -47.51)"/></g><g class="cls-2"><path class="cls-8" d="M335.81,55.17H163.75A17.57,17.57,0,0,0,146.34,72.9V427.1a17.58,17.58,0,0,0,17.41,17.73H335.81a17.6,17.6,0,0,0,17.43-17.73V72.9a17.59,17.59,0,0,0-17.43-17.73m6.54,361c0,9.32-7,16.86-15.59,16.86H172.83c-8.63,0-15.62-7.54-15.62-16.86V86.33c0-19,7-19.92,15.62-19.92h30.83c1.8,0,3.26,2,3.26,4.56v1.09c0,5.91,3.24,5.93,7.21,5.93h71.3c4,0,7.23,0,7.23-5.93V71c0-2.53,1.45-4.56,3.27-4.56h30.83c8.61,0,15.59,2.52,15.59,19.92Z" transform="translate(-39.97 -47.51)"/><path class="cls-7" d="M342.36,86.62V416.44c0,9.32-7,16.86-15.59,16.86H172.84c-8.63,0-15.62-7.54-15.62-16.86V86.62c0-19,7-19.92,15.62-19.92h30.84c1.79,0,3.25,2,3.25,4.56v1.09c0,5.91,3.24,5.93,7.21,5.93h71.3c4,0,7.23,0,7.23-5.93V71.26c0-2.53,1.45-4.56,3.27-4.56h30.83c8.61,0,15.59,2.52,15.59,19.92" transform="translate(-39.97 -47.51)"/><path class="cls-6" d="M342.36,86.62v29.92H157.22V86.62c0-19,7-19.92,15.62-19.92h30.84c1.79,0,3.25,2,3.25,4.56v1.09c0,5.91,3.24,5.93,7.21,5.93h71.3c4,0,7.23,0,7.23-5.93V71.26c0-2.52,1.45-4.56,3.27-4.56h30.83c8.61,0,15.59,2.53,15.59,19.92" transform="translate(-39.97 -47.51)"/><path class="cls-7" d="M259.51,70.6H240.06a1.2,1.2,0,1,1,0-2.4h19.45a1.2,1.2,0,0,1,0,2.4" transform="translate(-39.97 -47.51)"/><path class="cls-7" d="M198.34,73.81l-.3.3c0,.06-.11.11-.17.17A4,4,0,0,0,195,73.09a4,4,0,0,0-2.88,1.19l-.16-.16-.3-.3h0l0,0,.37-.33a4.52,4.52,0,0,1,.88-.56,4.59,4.59,0,0,1,1.15-.39l.58-.07h.5c.13,0,.27,0,.4,0a4.41,4.41,0,0,1,1.06.25,5.05,5.05,0,0,1,.71.33,5.33,5.33,0,0,1,.69.48l.31.29Z" transform="translate(-39.97 -47.51)"/><path class="cls-7" d="M193.07,75.22l-.47-.47a3.3,3.3,0,0,1,1.92-1,3.38,3.38,0,0,1,2.88.95l-.47.47a2.73,2.73,0,0,0-1.93-.79,2.7,2.7,0,0,0-1.93.8" transform="translate(-39.97 -47.51)"/><path class="cls-7" d="M196.46,75.69l-.47.46a1.38,1.38,0,0,0-1-.4,1.34,1.34,0,0,0-1,.41l-.47-.47a2,2,0,0,1,2.91,0" transform="translate(-39.97 -47.51)"/><path class="cls-7" d="M195.43,76.58a.43.43,0,1,1-.43-.42.42.42,0,0,1,.43.42" transform="translate(-39.97 -47.51)"/><path class="cls-7" d="M169.29,74.72a1.23,1.23,0,1,1,1.23,1.22,1.23,1.23,0,0,1-1.23-1.22" transform="translate(-39.97 -47.51)"/><path class="cls-7" d="M173.15,74.72a1.23,1.23,0,1,1,1.23,1.22,1.23,1.23,0,0,1-1.23-1.22" transform="translate(-39.97 -47.51)"/><path class="cls-7" d="M177,74.72a1.23,1.23,0,1,1,1.23,1.22A1.23,1.23,0,0,1,177,74.72" transform="translate(-39.97 -47.51)"/><path class="cls-7" d="M180.88,74.72a1.23,1.23,0,1,1,1.23,1.22,1.23,1.23,0,0,1-1.23-1.22" transform="translate(-39.97 -47.51)"/><path class="cls-7" d="M184.75,74.72A1.23,1.23,0,1,1,186,75.94a1.23,1.23,0,0,1-1.22-1.22" transform="translate(-39.97 -47.51)"/><path class="cls-7" d="M328.46,77.39h-10V72.77h10Zm-9.48-.5h9V73.28h-9Z" transform="translate(-39.97 -47.51)"/><rect class="cls-7" x="279.33" y="26.04" width="6.44" height="3.05"/><rect class="cls-7" x="288.5" y="26.33" width="0.89" height="2.48"/><polygon class="cls-7" points="134.79 57.58 129.32 52.45 134.79 47.33 135.64 48.23 131.13 52.45 135.64 56.68 134.79 57.58"/><path class="cls-17" d="M319.35,99.12a.7.7,0,0,1,.34.64,2.21,2.21,0,0,0,0,.42.71.71,0,0,1-.34.64l-.77.44,1.45,2.51.77-.44a.69.69,0,0,1,.72,0,2.77,2.77,0,0,0,.37.22.69.69,0,0,1,.38.61v.89h2.9v-.89a.69.69,0,0,1,.38-.61,2.77,2.77,0,0,0,.37-.22.69.69,0,0,1,.72,0l.77.44,1.45-2.51-.77-.44a.69.69,0,0,1-.34-.64,2.21,2.21,0,0,0,0-.42.68.68,0,0,1,.34-.64l.77-.45-1.45-2.51-.76.45a.69.69,0,0,1-.73,0c-.12-.07-.24-.15-.37-.21a.69.69,0,0,1-.38-.61v-.89h-2.9v.89a.69.69,0,0,1-.38.61c-.13.06-.25.14-.37.21a.69.69,0,0,1-.73,0l-.76-.45-1.45,2.51Zm4.37-1.52a2.37,2.37,0,1,1-2.37,2.37A2.37,2.37,0,0,1,323.72,97.6Z" transform="translate(-39.97 -47.51)"/><rect class="cls-7" x="135.49" y="86.92" width="113.48" height="7.11"/><rect class="cls-5" x="135.42" y="86.85" width="113.63" height="7.26"/><rect class="cls-6" x="241.79" y="86.85" width="7.26" height="7.26"/><path class="cls-7" d="M287.64,140l-.65.5-1.22-1.61-.45-.58a1.35,1.35,0,0,0,.26-.15,1.13,1.13,0,0,0,.33-.43l.48.62Z" transform="translate(-39.97 -47.51)"/><path class="cls-7" d="M286.35,136.2a1.79,1.79,0,1,0-.58,2.67,1.17,1.17,0,0,0,.25-.16,1.9,1.9,0,0,0,.37-.38,1.8,1.8,0,0,0,0-2.13m-.77,1.94a1.35,1.35,0,0,1-.26.15,1.08,1.08,0,0,1-1.05-1.85,1.08,1.08,0,0,1,1.65,1.27,1.16,1.16,0,0,1-.34.43" transform="translate(-39.97 -47.51)"/><rect class="cls-18" x="136.98" y="88.32" width="0.38" height="4.32"/><path class="cls-6" d="M333.92,130.81a4.7,4.7,0,0,1-1.4.58,4.78,4.78,0,0,1-3.68-.59,4.82,4.82,0,1,1,5.08,0" transform="translate(-39.97 -47.51)"/><path class="cls-7" d="M332.85,126.15a1.47,1.47,0,1,1-1.47-1.47,1.47,1.47,0,0,1,1.47,1.47" transform="translate(-39.97 -47.51)"/><path class="cls-7" d="M333.92,130.2v.61a4.7,4.7,0,0,1-1.4.58,4.78,4.78,0,0,1-3.68-.59v-.6a2.54,2.54,0,0,1,5.08,0" transform="translate(-39.97 -47.51)"/><rect class="cls-5" x="117.25" y="105.49" width="185.13" height="14.68"/><rect class="cls-7" x="128.74" y="110.63" width="4.41" height="4.41"/><polygon class="cls-7" points="151.88 115.04 147.47 115.04 149.27 112.83 147.47 110.63 151.88 110.63 153.68 112.83 151.88 115.04"/><polygon class="cls-6" points="140.55 110.63 141.27 112.08 142.87 112.31 141.71 113.44 141.98 115.04 140.55 114.28 139.12 115.04 139.39 113.44 138.23 112.31 139.84 112.08 140.55 110.63"/><rect class="cls-8" x="156.84" y="111.93" width="35.12" height="1.79"/><rect class="cls-8" x="251.6" y="111.93" width="31.89" height="1.79"/><rect class="cls-16" x="202.69" y="111.93" width="35.52" height="1.79"/><rect class="cls-7" x="128.74" y="125.3" width="4.41" height="4.41"/><rect class="cls-19" x="128.74" y="125.3" width="4.41" height="4.41"/><polygon class="cls-7" points="151.88 129.71 147.47 129.71 149.27 127.51 147.47 125.31 151.88 125.31 153.68 127.51 151.88 129.71"/><polygon class="cls-19" points="151.88 129.71 147.47 129.71 149.27 127.51 147.47 125.31 151.88 125.31 153.68 127.51 151.88 129.71"/><polygon class="cls-6" points="140.55 125.3 141.27 126.76 142.87 126.99 141.71 128.12 141.98 129.71 140.55 128.96 139.12 129.71 139.39 128.12 138.23 126.99 139.84 126.76 140.55 125.3"/><rect class="cls-8" x="156.84" y="126.61" width="35.12" height="1.79"/><rect class="cls-8" x="251.6" y="126.61" width="31.89" height="1.79"/><rect class="cls-16" x="202.69" y="126.61" width="35.52" height="1.79"/><rect class="cls-5" x="117.25" y="134.85" width="185.13" height="14.68"/><rect class="cls-7" x="128.74" y="139.98" width="4.41" height="4.41"/><polygon class="cls-7" points="151.88 144.39 147.47 144.39 149.27 142.19 147.47 139.98 151.88 139.98 153.68 142.19 151.88 144.39"/><polygon class="cls-7" points="140.55 139.98 141.27 141.43 142.87 141.67 141.71 142.8 141.98 144.39 140.55 143.64 139.12 144.39 139.39 142.8 138.23 141.67 139.84 141.43 140.55 139.98"/><rect class="cls-20" x="156.84" y="141.29" width="35.12" height="1.79"/><rect class="cls-20" x="251.6" y="141.29" width="31.89" height="1.79"/><rect class="cls-18" x="202.69" y="141.29" width="35.52" height="1.79"/><rect class="cls-7" x="128.74" y="154.66" width="4.41" height="4.41"/><rect class="cls-19" x="128.74" y="154.66" width="4.41" height="4.41"/><polygon class="cls-7" points="151.88 159.07 147.47 159.07 149.27 156.87 147.47 154.66 151.88 154.66 153.68 156.87 151.88 159.07"/><polygon class="cls-19" points="151.88 159.07 147.47 159.07 149.27 156.87 147.47 154.66 151.88 154.66 153.68 156.87 151.88 159.07"/><polygon class="cls-6" points="140.55 154.66 141.27 156.11 142.87 156.34 141.71 157.47 141.98 159.07 140.55 158.32 139.12 159.07 139.39 157.47 138.23 156.34 139.84 156.11 140.55 154.66"/><rect class="cls-20" x="156.84" y="155.97" width="35.12" height="1.79"/><rect class="cls-20" x="251.6" y="155.97" width="31.89" height="1.79"/><rect class="cls-18" x="202.69" y="155.97" width="35.52" height="1.79"/><rect class="cls-5" x="117.25" y="164.2" width="185.13" height="14.68"/><rect class="cls-7" x="128.74" y="169.34" width="4.41" height="4.41"/><polygon class="cls-7" points="151.88 173.75 147.47 173.75 149.27 171.54 147.47 169.34 151.88 169.34 153.68 171.54 151.88 173.75"/><polygon class="cls-6" points="140.55 169.34 141.27 170.79 142.87 171.02 141.71 172.15 141.98 173.75 140.55 173 139.12 173.75 139.39 172.15 138.23 171.02 139.84 170.79 140.55 169.34"/><rect class="cls-20" x="156.84" y="170.65" width="35.12" height="1.79"/><rect class="cls-20" x="251.6" y="170.65" width="31.89" height="1.79"/><rect class="cls-18" x="202.69" y="170.65" width="35.52" height="1.79"/><rect class="cls-7" x="128.74" y="184.02" width="4.41" height="4.41"/><rect class="cls-19" x="128.74" y="184.02" width="4.41" height="4.41"/><polygon class="cls-7" points="151.88 188.43 147.47 188.43 149.27 186.22 147.47 184.02 151.88 184.02 153.68 186.22 151.88 188.43"/><polygon class="cls-19" points="151.88 188.43 147.47 188.43 149.27 186.22 147.47 184.02 151.88 184.02 153.68 186.22 151.88 188.43"/><polygon class="cls-7" points="140.55 184.02 141.27 185.47 142.87 185.7 141.71 186.83 141.98 188.43 140.55 187.67 139.12 188.43 139.39 186.83 138.23 185.7 139.84 185.47 140.55 184.02"/><polygon class="cls-19" points="140.55 184.02 141.27 185.47 142.87 185.7 141.71 186.83 141.98 188.43 140.55 187.67 139.12 188.43 139.39 186.83 138.23 185.7 139.84 185.47 140.55 184.02"/><rect class="cls-20" x="156.84" y="185.33" width="35.12" height="1.79"/><rect class="cls-20" x="251.6" y="185.33" width="31.89" height="1.79"/><rect class="cls-18" x="202.69" y="185.33" width="35.52" height="1.79"/><rect class="cls-5" x="117.25" y="193.56" width="185.13" height="14.68"/><rect class="cls-7" x="128.74" y="198.7" width="4.41" height="4.41"/><polygon class="cls-7" points="151.88 203.1 147.47 203.1 149.27 200.9 147.47 198.69 151.88 198.69 153.68 200.9 151.88 203.1"/><polygon class="cls-6" points="140.55 198.69 141.27 200.15 142.87 200.38 141.71 201.51 141.98 203.1 140.55 202.35 139.12 203.1 139.39 201.51 138.23 200.38 139.84 200.15 140.55 198.69"/><rect class="cls-20" x="156.84" y="200" width="35.12" height="1.79"/><rect class="cls-20" x="251.6" y="200" width="31.89" height="1.79"/><rect class="cls-18" x="202.69" y="200" width="35.52" height="1.79"/><rect class="cls-7" x="128.74" y="213.37" width="4.41" height="4.41"/><rect class="cls-19" x="128.74" y="213.37" width="4.41" height="4.41"/><polygon class="cls-7" points="151.88 217.78 147.47 217.78 149.27 215.58 147.47 213.37 151.88 213.37 153.68 215.58 151.88 217.78"/><polygon class="cls-19" points="151.88 217.78 147.47 217.78 149.27 215.58 147.47 213.37 151.88 213.37 153.68 215.58 151.88 217.78"/><polygon class="cls-7" points="140.55 213.37 141.27 214.82 142.87 215.06 141.71 216.19 141.98 217.78 140.55 217.03 139.12 217.78 139.39 216.19 138.23 215.06 139.84 214.82 140.55 213.37"/><polygon class="cls-19" points="140.55 213.37 141.27 214.82 142.87 215.06 141.71 216.19 141.98 217.78 140.55 217.03 139.12 217.78 139.39 216.19 138.23 215.06 139.84 214.82 140.55 213.37"/><rect class="cls-20" x="156.84" y="214.68" width="35.12" height="1.79"/><rect class="cls-20" x="251.6" y="214.68" width="31.89" height="1.79"/><rect class="cls-18" x="202.69" y="214.68" width="35.52" height="1.79"/><rect class="cls-5" x="117.25" y="222.91" width="185.13" height="14.68"/><rect class="cls-7" x="128.74" y="228.05" width="4.41" height="4.41"/><polygon class="cls-7" points="151.88 232.46 147.47 232.46 149.27 230.25 147.47 228.05 151.88 228.05 153.68 230.25 151.88 232.46"/><polygon class="cls-7" points="140.55 228.05 141.27 229.5 142.87 229.74 141.71 230.86 141.98 232.46 140.55 231.71 139.12 232.46 139.39 230.86 138.23 229.74 139.84 229.5 140.55 228.05"/><rect class="cls-20" x="156.84" y="229.36" width="35.12" height="1.79"/><rect class="cls-20" x="251.6" y="229.36" width="31.89" height="1.79"/><rect class="cls-18" x="202.69" y="229.36" width="35.52" height="1.79"/><rect class="cls-7" x="128.74" y="242.73" width="4.41" height="4.41"/><rect class="cls-19" x="128.74" y="242.73" width="4.41" height="4.41"/><polygon class="cls-7" points="151.88 247.14 147.47 247.14 149.27 244.93 147.47 242.73 151.88 242.73 153.68 244.93 151.88 247.14"/><polygon class="cls-19" points="151.88 247.14 147.47 247.14 149.27 244.93 147.47 242.73 151.88 242.73 153.68 244.93 151.88 247.14"/><polygon class="cls-7" points="140.55 242.73 141.27 244.18 142.87 244.41 141.71 245.54 141.98 247.14 140.55 246.38 139.12 247.14 139.39 245.54 138.23 244.41 139.84 244.18 140.55 242.73"/><polygon class="cls-19" points="140.55 242.73 141.27 244.18 142.87 244.41 141.71 245.54 141.98 247.14 140.55 246.38 139.12 247.14 139.39 245.54 138.23 244.41 139.84 244.18 140.55 242.73"/><rect class="cls-20" x="156.84" y="244.04" width="35.12" height="1.79"/><rect class="cls-20" x="251.6" y="244.04" width="31.89" height="1.79"/><rect class="cls-18" x="202.69" y="244.04" width="35.52" height="1.79"/><rect class="cls-5" x="117.25" y="252.27" width="185.13" height="14.68"/><rect class="cls-7" x="128.74" y="257.41" width="4.41" height="4.41"/><polygon class="cls-7" points="151.88 261.81 147.47 261.81 149.27 259.61 147.47 257.41 151.88 257.41 153.68 259.61 151.88 261.81"/><polygon class="cls-7" points="140.55 257.41 141.27 258.86 142.87 259.09 141.71 260.22 141.98 261.81 140.55 261.06 139.12 261.81 139.39 260.22 138.23 259.09 139.84 258.86 140.55 257.41"/><polygon class="cls-19" points="140.55 257.41 141.27 258.86 142.87 259.09 141.71 260.22 141.98 261.81 140.55 261.06 139.12 261.81 139.39 260.22 138.23 259.09 139.84 258.86 140.55 257.41"/><rect class="cls-20" x="156.84" y="258.71" width="35.12" height="1.79"/><rect class="cls-20" x="251.6" y="258.71" width="31.89" height="1.79"/><rect class="cls-18" x="202.69" y="258.71" width="35.52" height="1.79"/><rect class="cls-7" x="128.74" y="272.09" width="4.41" height="4.41"/><rect class="cls-19" x="128.74" y="272.09" width="4.41" height="4.41"/><polygon class="cls-7" points="151.88 276.49 147.47 276.49 149.27 274.29 147.47 272.08 151.88 272.08 153.68 274.29 151.88 276.49"/><polygon class="cls-19" points="151.88 276.49 147.47 276.49 149.27 274.29 147.47 272.08 151.88 272.08 153.68 274.29 151.88 276.49"/><polygon class="cls-7" points="140.55 272.08 141.27 273.54 142.87 273.77 141.71 274.9 141.98 276.49 140.55 275.74 139.12 276.49 139.39 274.9 138.23 273.77 139.84 273.54 140.55 272.08"/><polygon class="cls-19" points="140.55 272.08 141.27 273.54 142.87 273.77 141.71 274.9 141.98 276.49 140.55 275.74 139.12 276.49 139.39 274.9 138.23 273.77 139.84 273.54 140.55 272.08"/><rect class="cls-20" x="156.84" y="273.39" width="35.12" height="1.79"/><rect class="cls-20" x="251.6" y="273.39" width="31.89" height="1.79"/><rect class="cls-18" x="202.69" y="273.39" width="35.52" height="1.79"/><rect class="cls-5" x="117.25" y="281.63" width="185.13" height="14.68"/><rect class="cls-7" x="128.74" y="286.76" width="4.41" height="4.41"/><polygon class="cls-7" points="151.88 291.17 147.47 291.17 149.27 288.97 147.47 286.76 151.88 286.76 153.68 288.97 151.88 291.17"/><polygon class="cls-7" points="140.55 286.76 141.27 288.21 142.87 288.45 141.71 289.57 141.98 291.17 140.55 290.42 139.12 291.17 139.39 289.57 138.23 288.45 139.84 288.21 140.55 286.76"/><polygon class="cls-19" points="140.55 286.76 141.27 288.21 142.87 288.45 141.71 289.57 141.98 291.17 140.55 290.42 139.12 291.17 139.39 289.57 138.23 288.45 139.84 288.21 140.55 286.76"/><rect class="cls-20" x="156.84" y="288.07" width="35.12" height="1.79"/><rect class="cls-20" x="251.6" y="288.07" width="31.89" height="1.79"/><rect class="cls-18" x="202.69" y="288.07" width="35.52" height="1.79"/><rect class="cls-7" x="128.74" y="301.44" width="4.41" height="4.41"/><rect class="cls-19" x="128.74" y="301.44" width="4.41" height="4.41"/><polygon class="cls-7" points="151.88 305.85 147.47 305.85 149.27 303.64 147.47 301.44 151.88 301.44 153.68 303.64 151.88 305.85"/><polygon class="cls-19" points="151.88 305.85 147.47 305.85 149.27 303.64 147.47 301.44 151.88 301.44 153.68 303.64 151.88 305.85"/><polygon class="cls-7" points="140.55 301.44 141.27 302.89 142.87 303.13 141.71 304.25 141.98 305.85 140.55 305.1 139.12 305.85 139.39 304.25 138.23 303.13 139.84 302.89 140.55 301.44"/><polygon class="cls-19" points="140.55 301.44 141.27 302.89 142.87 303.13 141.71 304.25 141.98 305.85 140.55 305.1 139.12 305.85 139.39 304.25 138.23 303.13 139.84 302.89 140.55 301.44"/><rect class="cls-20" x="156.84" y="302.75" width="35.12" height="1.79"/><rect class="cls-20" x="251.6" y="302.75" width="31.89" height="1.79"/><rect class="cls-18" x="202.69" y="302.75" width="35.52" height="1.79"/><rect class="cls-5" x="117.25" y="310.98" width="185.13" height="14.68"/><rect class="cls-7" x="128.74" y="316.12" width="4.41" height="4.41"/><polygon class="cls-7" points="151.88 320.53 147.47 320.53 149.27 318.32 147.47 316.12 151.88 316.12 153.68 318.32 151.88 320.53"/><polygon class="cls-6" points="140.55 316.12 141.27 317.57 142.87 317.8 141.71 318.93 141.98 320.53 140.55 319.77 139.12 320.53 139.39 318.93 138.23 317.8 139.84 317.57 140.55 316.12"/><rect class="cls-20" x="156.84" y="317.43" width="35.12" height="1.79"/><rect class="cls-20" x="251.6" y="317.43" width="31.89" height="1.79"/><rect class="cls-18" x="202.69" y="317.43" width="35.52" height="1.79"/><rect class="cls-7" x="128.74" y="330.8" width="4.41" height="4.41"/><rect class="cls-19" x="128.74" y="330.8" width="4.41" height="4.41"/><polygon class="cls-7" points="151.88 335.21 147.47 335.21 149.27 333 147.47 330.8 151.88 330.8 153.68 333 151.88 335.21"/><polygon class="cls-19" points="151.88 335.21 147.47 335.21 149.27 333 147.47 330.8 151.88 330.8 153.68 333 151.88 335.21"/><polygon class="cls-7" points="140.55 330.8 141.27 332.25 142.87 332.48 141.71 333.61 141.98 335.21 140.55 334.45 139.12 335.21 139.39 333.61 138.23 332.48 139.84 332.25 140.55 330.8"/><polygon class="cls-19" points="140.55 330.8 141.27 332.25 142.87 332.48 141.71 333.61 141.98 335.21 140.55 334.45 139.12 335.21 139.39 333.61 138.23 332.48 139.84 332.25 140.55 330.8"/><rect class="cls-20" x="156.84" y="332.1" width="35.12" height="1.79"/><rect class="cls-20" x="251.6" y="332.1" width="31.89" height="1.79"/><rect class="cls-18" x="202.69" y="332.1" width="35.52" height="1.79"/><rect class="cls-5" x="117.25" y="340.34" width="185.13" height="14.68"/><rect class="cls-7" x="128.74" y="345.47" width="4.41" height="4.41"/><polygon class="cls-7" points="151.88 349.88 147.47 349.88 149.27 347.68 147.47 345.48 151.88 345.48 153.68 347.68 151.88 349.88"/><polygon class="cls-6" points="140.55 345.47 141.27 346.93 142.87 347.16 141.71 348.29 141.98 349.88 140.55 349.13 139.12 349.88 139.39 348.29 138.23 347.16 139.84 346.93 140.55 345.47"/><rect class="cls-20" x="156.84" y="346.78" width="35.12" height="1.79"/><rect class="cls-20" x="251.6" y="346.78" width="31.89" height="1.79"/><rect class="cls-18" x="202.69" y="346.78" width="35.52" height="1.79"/><rect class="cls-7" x="128.74" y="360.15" width="4.41" height="4.41"/><rect class="cls-19" x="128.74" y="360.15" width="4.41" height="4.41"/><polygon class="cls-7" points="151.88 364.56 147.47 364.56 149.27 362.36 147.47 360.15 151.88 360.15 153.68 362.36 151.88 364.56"/><polygon class="cls-19" points="151.88 364.56 147.47 364.56 149.27 362.36 147.47 360.15 151.88 360.15 153.68 362.36 151.88 364.56"/><polygon class="cls-7" points="140.55 360.15 141.27 361.6 142.87 361.84 141.71 362.97 141.98 364.56 140.55 363.81 139.12 364.56 139.39 362.97 138.23 361.84 139.84 361.6 140.55 360.15"/><polygon class="cls-19" points="140.55 360.15 141.27 361.6 142.87 361.84 141.71 362.97 141.98 364.56 140.55 363.81 139.12 364.56 139.39 362.97 138.23 361.84 139.84 361.6 140.55 360.15"/><rect class="cls-20" x="156.84" y="361.46" width="35.12" height="1.79"/><rect class="cls-20" x="251.6" y="361.46" width="31.89" height="1.79"/><rect class="cls-18" x="202.69" y="361.46" width="35.52" height="1.79"/><path class="cls-5" d="M342.33,417.21A16.82,16.82,0,0,1,333,431.89H166.59a16.81,16.81,0,0,1-9.34-14.68Z" transform="translate(-39.97 -47.51)"/><rect class="cls-7" x="128.74" y="374.83" width="4.41" height="4.41"/><polygon class="cls-7" points="151.88 379.24 147.47 379.24 149.27 377.04 147.47 374.83 151.88 374.83 153.68 377.04 151.88 379.24"/><polygon class="cls-6" points="140.55 374.83 141.27 376.28 142.87 376.51 141.71 377.64 141.98 379.24 140.55 378.49 139.12 379.24 139.39 377.64 138.23 376.51 139.84 376.28 140.55 374.83"/><rect class="cls-20" x="156.84" y="376.14" width="35.12" height="1.79"/><rect class="cls-20" x="251.6" y="376.14" width="31.89" height="1.79"/><rect class="cls-18" x="202.69" y="376.14" width="35.52" height="1.79"/></g><g class="cls-2"><path class="cls-21" d="M379.59,222s-66.8,47.62-134.85,55.5c-87,10.08-124.83-1.12-142.78-23.16s21.92-44.2,41.2-50.87" transform="translate(-39.97 -47.51)"/><polygon class="cls-6" points="345.81 155.93 339.62 174.46 353.35 163.13 406.46 142.26 345.81 155.93"/><g class="cls-9"><g class="cls-22"><polygon points="345.81 155.93 339.62 174.46 353.35 163.13 406.46 142.26 345.81 155.93"/></g></g><polygon class="cls-8" points="355.27 167.36 339.62 174.46 353.35 163.13 355.27 167.36"/><polygon class="cls-6" points="353.35 163.13 406.46 142.26 363.62 186.35 353.35 163.13"/><polygon class="cls-6" points="345.81 155.93 323.15 142.13 406.46 142.26 345.81 155.93"/></g><rect class="cls-7" x="102.21" y="109.42" width="215.64" height="178.3"/><path class="cls-8" d="M357.82,335.23l-215.64.15H142v-.15l-.1-178.3v-.24h.25l215.64.17h.08v.07Zm0,0-.08-178.3.08.08-215.64.17.25-.25-.1,178.3-.15-.14Z" transform="translate(-39.97 -47.51)"/><g class="cls-2"><path class="cls-7" d="M151.58,162a2.52,2.52,0,1,1-2.52-2.52,2.52,2.52,0,0,1,2.52,2.52" transform="translate(-39.97 -47.51)"/><path class="cls-8" d="M151.58,162a2.64,2.64,0,0,1-2.52,2.64,2.68,2.68,0,0,1-1.93-.71,2.65,2.65,0,0,1,0-3.87,2.64,2.64,0,0,1,4.45,1.94m0,0a2.52,2.52,0,0,0-.76-1.76,2.4,2.4,0,1,0,0,3.51,2.49,2.49,0,0,0,.76-1.75" transform="translate(-39.97 -47.51)"/><path class="cls-7" d="M161.87,162a2.52,2.52,0,1,1-2.52-2.52,2.52,2.52,0,0,1,2.52,2.52" transform="translate(-39.97 -47.51)"/><path class="cls-8" d="M161.87,162a2.64,2.64,0,0,1-2.52,2.64,2.68,2.68,0,0,1-1.93-.71,2.65,2.65,0,0,1,0-3.87,2.64,2.64,0,0,1,4.45,1.94m0,0a2.52,2.52,0,0,0-.76-1.76,2.4,2.4,0,1,0,0,3.51,2.49,2.49,0,0,0,.76-1.75" transform="translate(-39.97 -47.51)"/><path class="cls-7" d="M172.17,162a2.52,2.52,0,1,1-2.52-2.52,2.52,2.52,0,0,1,2.52,2.52" transform="translate(-39.97 -47.51)"/><path class="cls-8" d="M172.17,162a2.65,2.65,0,0,1-2.52,2.64,2.72,2.72,0,0,1-1.94-.71,2.8,2.8,0,0,1-.83-1.93,2.76,2.76,0,0,1,.83-1.94,2.7,2.7,0,0,1,1.94-.71,2.65,2.65,0,0,1,2.52,2.65m0,0a2.53,2.53,0,0,0-.77-1.76,2.4,2.4,0,1,0,0,3.51,2.5,2.5,0,0,0,.77-1.75" transform="translate(-39.97 -47.51)"/><line class="cls-7" x1="102.21" y1="119.44" x2="317.85" y2="119.44"/><polygon class="cls-8" points="102.21 119.44 129.16 119.32 156.12 119.27 210.03 119.19 263.94 119.27 290.89 119.32 317.85 119.44 290.89 119.56 263.94 119.61 210.03 119.69 156.12 119.61 129.16 119.56 102.21 119.44"/><polygon class="cls-6" points="250.63 234.77 169.01 234.77 169.01 165.72 209.81 139.81 250.63 165.72 250.63 234.77"/><g class="cls-23"><g class="cls-24"><polygon points="250.63 234.77 169.01 234.77 169.01 165.72 209.81 139.81 250.63 165.72 250.63 234.77"/></g></g><polygon class="cls-7" points="246.03 229.49 173.61 229.49 173.61 136.53 227.38 136.53 246.03 154.24 246.03 229.49"/><path class="cls-8" d="M286,277l-72.42.24h-.23V277l-.14-93v-.37h.37l53.77.09h.11l.09.08,18.62,17.74.07.07v.1l-.08,37.69Zm0,0-.24-75.25.07.18-18.67-17.68.19.07-53.77.09L214,184l-.13,93-.24-.23Z" transform="translate(-39.97 -47.51)"/><polygon class="cls-20" points="227.38 136.53 246.03 154.24 227.38 154.24 227.38 136.53"/><rect class="cls-20" x="180.68" y="152.12" width="40.26" height="2.39"/><rect class="cls-20" x="180.68" y="158.15" width="40.26" height="2.39"/><rect class="cls-20" x="180.68" y="164.17" width="40.26" height="2.39"/><rect class="cls-20" x="180.68" y="170.2" width="58.99" height="2.39"/><rect class="cls-20" x="180.68" y="176.23" width="58.99" height="2.39"/><rect class="cls-20" x="180.68" y="182.25" width="58.99" height="2.39"/><rect class="cls-20" x="180.68" y="188.28" width="58.99" height="2.39"/><rect class="cls-20" x="180.68" y="194.3" width="58.99" height="2.39"/><rect class="cls-20" x="180.68" y="200.33" width="58.99" height="2.39"/><rect class="cls-20" x="180.68" y="206.35" width="58.99" height="2.39"/><rect class="cls-20" x="180.68" y="212.38" width="58.99" height="2.39"/><rect class="cls-20" x="180.68" y="218.4" width="58.99" height="2.39"/><path class="cls-6" d="M290.6,230.52v51.76H209V230.52c3.51,2,7,4.07,10.42,6.1s6.91,4.15,10.34,6.26q5.74,3.5,11.46,7.08l.13-.07s-.06.06-.1.08l8.57,5.36c2.84-1.79,5.7-3.59,8.55-5.36a.87.87,0,0,0-.1-.08l.13.06q5.72-3.57,11.46-7.09c3.43-2.09,6.87-4.18,10.33-6.24s6.93-4.11,10.43-6.1" transform="translate(-39.97 -47.51)"/><g class="cls-23"><g class="cls-25"><path d="M290.6,230.52c-3.3,2.32-6.65,4.54-10,6.82s-6.7,4.46-10.07,6.66q-5.28,3.47-10.58,6.86l-.32.22-9.4,6-.47.28-.45-.28-9.39-6-.33-.2c-3.54-2.27-7.07-4.55-10.59-6.87-3.36-2.19-6.72-4.42-10.06-6.65s-6.68-4.5-10-6.82c3.51,2,7,4.07,10.42,6.1s6.91,4.15,10.34,6.26q5.74,3.5,11.46,7.08h0l8.57,5.36c2.84-1.79,5.7-3.59,8.55-5.36l0,0q5.72-3.57,11.46-7.09c3.43-2.09,6.87-4.18,10.33-6.24s6.93-4.11,10.43-6.1" transform="translate(-39.97 -47.51)"/><path d="M241.33,249.89s-.06.06-.1.08c-.43.37-.86.74-1.29,1.09-2,1.73-4.14,3.39-6.27,5-2.6,2-5.26,3.89-7.93,5.78s-5.39,3.69-8.14,5.45-5.54,3.49-8.42,5.08c2.47-2.17,5-4.2,7.64-6.17s5.28-3.89,7.94-5.77,5.39-3.71,8.15-5.47c2.19-1.41,4.42-2.79,6.7-4.09.53-.31,1.06-.6,1.59-.9l.13-.07" transform="translate(-39.97 -47.51)"/><path d="M290.41,272.36c-2.88-1.59-5.68-3.31-8.42-5.08s-5.46-3.6-8.16-5.45-5.33-3.79-7.93-5.78c-2.12-1.6-4.21-3.25-6.25-5l-1.3-1.11-.09-.08a.45.45,0,0,0,.12.06l1.59.91c2.28,1.3,4.5,2.68,6.71,4.09,2.75,1.76,5.45,3.6,8.13,5.47s5.34,3.78,7.94,5.77,5.18,4,7.66,6.17" transform="translate(-39.97 -47.51)"/></g></g><rect class="cls-6" x="175.4" y="256.98" width="69.26" height="14.68"/><path class="cls-7" d="M231.86,310.31a1.23,1.23,0,0,0-.23-.18,2.29,2.29,0,0,0-.35-.19,3,3,0,0,0-.45-.15,2.73,2.73,0,0,0-.5-.05,1.37,1.37,0,0,0-.84.21.68.68,0,0,0-.27.57.6.6,0,0,0,.35.57,1.67,1.67,0,0,0,.44.18c.17.05.38.11.61.16a6,6,0,0,1,.78.24,2,2,0,0,1,.59.31,1.15,1.15,0,0,1,.37.45,1.45,1.45,0,0,1,.14.65,1.6,1.6,0,0,1-.17.75,1.44,1.44,0,0,1-.45.5,2,2,0,0,1-.66.29,3.44,3.44,0,0,1-.8.09,4.09,4.09,0,0,1-1.26-.19,3.66,3.66,0,0,1-1.09-.57l.41-.77a1.65,1.65,0,0,0,.3.23,2.8,2.8,0,0,0,.46.24,4.09,4.09,0,0,0,.56.18,2.59,2.59,0,0,0,.63.08,1.55,1.55,0,0,0,.82-.19.6.6,0,0,0,.29-.54.57.57,0,0,0-.11-.36.88.88,0,0,0-.31-.25,2.26,2.26,0,0,0-.49-.2l-.65-.18c-.29-.08-.53-.16-.74-.24a1.67,1.67,0,0,1-.53-.3,1.12,1.12,0,0,1-.31-.41,1.26,1.26,0,0,1-.11-.57,1.58,1.58,0,0,1,.16-.74,1.55,1.55,0,0,1,.43-.55,2.27,2.27,0,0,1,.66-.33,3,3,0,0,1,.81-.11,3.08,3.08,0,0,1,1.07.18,3.81,3.81,0,0,1,.85.46Z" transform="translate(-39.97 -47.51)"/><path class="cls-7" d="M235.76,313.89a1.37,1.37,0,0,0,.74-.18,1.32,1.32,0,0,0,.48-.46,1.83,1.83,0,0,0,.26-.64,3.81,3.81,0,0,0,.07-.75V309h.91v2.88a4.36,4.36,0,0,1-.14,1.1,2.5,2.5,0,0,1-.43.9,1.94,1.94,0,0,1-.77.61,2.54,2.54,0,0,1-1.12.23,2.51,2.51,0,0,1-1.15-.24,2.11,2.11,0,0,1-.75-.63,2.53,2.53,0,0,1-.42-.91,4.59,4.59,0,0,1-.13-1.06V309h.9v2.88a3.67,3.67,0,0,0,.07.75,1.89,1.89,0,0,0,.26.65,1.41,1.41,0,0,0,.48.46,1.53,1.53,0,0,0,.74.17" transform="translate(-39.97 -47.51)"/><path class="cls-7" d="M243.87,313.19a1.38,1.38,0,0,1-.14.62,1.5,1.5,0,0,1-.37.46,1.75,1.75,0,0,1-.56.29,2.15,2.15,0,0,1-.68.1h-2.71V309h2.93a1.07,1.07,0,0,1,.53.13,1.2,1.2,0,0,1,.41.33,1.48,1.48,0,0,1,.26.46,1.64,1.64,0,0,1,.09.53,1.58,1.58,0,0,1-.21.78,1.31,1.31,0,0,1-.6.54,1.44,1.44,0,0,1,.77.52,1.48,1.48,0,0,1,.28.92m-3.57-3.44v1.68H242a.64.64,0,0,0,.31-.07.85.85,0,0,0,.25-.17.78.78,0,0,0,.17-.26.9.9,0,0,0,.06-.34.88.88,0,0,0-.21-.6.68.68,0,0,0-.53-.24ZM243,313a1,1,0,0,0-.06-.34.85.85,0,0,0-.16-.28.75.75,0,0,0-.24-.19.67.67,0,0,0-.31-.07H240.3v1.73h1.82a.72.72,0,0,0,.33-.07.68.68,0,0,0,.26-.18.8.8,0,0,0,.18-.27A1,1,0,0,0,243,313" transform="translate(-39.97 -47.51)"/><path class="cls-7" d="M248.17,310.31a1.68,1.68,0,0,0-.23-.18,2.42,2.42,0,0,0-.36-.19,3,3,0,0,0-.45-.15,2.73,2.73,0,0,0-.5-.05,1.31,1.31,0,0,0-.83.21.75.75,0,0,0-.19.91.66.66,0,0,0,.26.23,2,2,0,0,0,.44.18c.18.05.38.11.62.16a6,6,0,0,1,.78.24,2.19,2.19,0,0,1,.59.31,1.24,1.24,0,0,1,.37.45,1.45,1.45,0,0,1,.13.65,1.73,1.73,0,0,1-.16.75,1.44,1.44,0,0,1-.45.5,2,2,0,0,1-.66.29,3.47,3.47,0,0,1-.81.09,4,4,0,0,1-1.25-.19,3.43,3.43,0,0,1-1.09-.57l.4-.77a1.65,1.65,0,0,0,.3.23,3.28,3.28,0,0,0,.46.24,4.09,4.09,0,0,0,.56.18,2.74,2.74,0,0,0,.64.08,1.51,1.51,0,0,0,.81-.19.6.6,0,0,0,.29-.54.57.57,0,0,0-.11-.36.79.79,0,0,0-.31-.25,2.17,2.17,0,0,0-.48-.2l-.66-.18c-.28-.08-.53-.16-.74-.24a1.62,1.62,0,0,1-.52-.3,1.14,1.14,0,0,1-.32-.41,1.41,1.41,0,0,1-.11-.57,1.72,1.72,0,0,1,.16-.74,1.58,1.58,0,0,1,.44-.55,2.09,2.09,0,0,1,.65-.33,3,3,0,0,1,.82-.11,3.06,3.06,0,0,1,1.06.18,3.89,3.89,0,0,1,.86.46Z" transform="translate(-39.97 -47.51)"/><path class="cls-7" d="M249.34,311.78a3,3,0,0,1,.18-1,2.71,2.71,0,0,1,.54-.91,2.86,2.86,0,0,1,.87-.66,2.7,2.7,0,0,1,1.16-.24,2.46,2.46,0,0,1,1.33.34,2.31,2.31,0,0,1,.83.9l-.71.47a1.52,1.52,0,0,0-.28-.43,1.57,1.57,0,0,0-.37-.28,1.62,1.62,0,0,0-.42-.15,2,2,0,0,0-.41-.05,1.67,1.67,0,0,0-.79.18,1.73,1.73,0,0,0-.56.48,2.32,2.32,0,0,0-.35.66,2.76,2.76,0,0,0-.11.74,2.3,2.3,0,0,0,.13.79,2.33,2.33,0,0,0,.38.67,2.14,2.14,0,0,0,.58.46,1.68,1.68,0,0,0,.74.17,2.18,2.18,0,0,0,.43,0,1.54,1.54,0,0,0,.42-.17,2.12,2.12,0,0,0,.38-.29,1.45,1.45,0,0,0,.28-.43l.75.43a1.67,1.67,0,0,1-.39.56,2.31,2.31,0,0,1-.56.41,3.12,3.12,0,0,1-.66.26,2.71,2.71,0,0,1-.68.09,2.38,2.38,0,0,1-1.1-.26,2.77,2.77,0,0,1-.85-.67,2.92,2.92,0,0,1-.56-.93,2.86,2.86,0,0,1-.2-1.07" transform="translate(-39.97 -47.51)"/><path class="cls-7" d="M255.17,314.66V309h2.47a1.54,1.54,0,0,1,.71.16,1.62,1.62,0,0,1,.55.42,1.9,1.9,0,0,1,.37.59,1.79,1.79,0,0,1,.13.68,2,2,0,0,1-.08.55,2.16,2.16,0,0,1-.22.49,1.63,1.63,0,0,1-.36.38,1.33,1.33,0,0,1-.45.25l1.33,2.16h-1l-1.23-2h-1.32v2Zm.89-2.77h1.57a.78.78,0,0,0,.35-.08,1,1,0,0,0,.27-.24,1.08,1.08,0,0,0,.17-.34,1.05,1.05,0,0,0,.07-.4,1.11,1.11,0,0,0-.08-.41,1.27,1.27,0,0,0-.2-.34,1.09,1.09,0,0,0-.29-.23.81.81,0,0,0-.34-.08h-1.52Z" transform="translate(-39.97 -47.51)"/><rect class="cls-7" x="220.49" y="261.47" width="0.9" height="5.68"/><path class="cls-7" d="M267.09,313.19a1.38,1.38,0,0,1-.13.62,1.53,1.53,0,0,1-.38.46,1.65,1.65,0,0,1-.56.29,2.15,2.15,0,0,1-.68.1h-2.71V309h2.93a1,1,0,0,1,.53.13,1.11,1.11,0,0,1,.41.33,1.48,1.48,0,0,1,.26.46,1.66,1.66,0,0,1,.1.53,1.59,1.59,0,0,1-.22.78,1.31,1.31,0,0,1-.6.54,1.44,1.44,0,0,1,.77.52,1.48,1.48,0,0,1,.28.92m-3.56-3.44v1.68h1.64a.62.62,0,0,0,.31-.07.74.74,0,0,0,.25-.17.78.78,0,0,0,.17-.26.9.9,0,0,0,.06-.34.88.88,0,0,0-.21-.6.66.66,0,0,0-.53-.24Zm2.64,3.28a.79.79,0,0,0-.06-.34.84.84,0,0,0-.15-.28.79.79,0,0,0-.25-.19.67.67,0,0,0-.31-.07h-1.87v1.73h1.81a.72.72,0,0,0,.33-.07.8.8,0,0,0,.27-.18,1,1,0,0,0,.17-.27,1,1,0,0,0,.06-.33" transform="translate(-39.97 -47.51)"/><polygon class="cls-7" points="231.96 266.35 231.96 267.14 228.06 267.14 228.06 261.46 231.89 261.46 231.89 262.26 228.96 262.26 228.96 263.87 231.49 263.87 231.49 264.62 228.96 264.62 228.96 266.35 231.96 266.35"/><polygon class="cls-8" points="153.09 243.22 167.33 243.1 181.56 243.05 210.03 242.97 238.5 243.05 252.73 243.1 266.96 243.22 252.73 243.34 238.5 243.38 210.03 243.47 181.56 243.38 167.33 243.34 153.09 243.22"/><path class="cls-8" d="M212.86,295.12q9.28-.14,18.57-.19l18.57-.06,18.57.06q9.29,0,18.57.19-9.28.13-18.57.19l-18.57.06-18.57-.06q-9.28,0-18.57-.19" transform="translate(-39.97 -47.51)"/></g></g></g></g></g></svg>