<svg xmlns="http://www.w3.org/2000/svg" viewBox="0 0 469.11 369.85"><defs><style>.cls-1{fill:#ffc727;}</style></defs><title>path</title><g id="Layer_2" data-name="Layer 2"><g id="Layer_1-2" data-name="Layer 1"><path class="cls-1" d="M129.62,5.24C112.42,9,73.67,18.13,41.35,53.13,2.28,95.42.23,145.59,0,156.43-.6,191,9.45,255.17,51.68,275.69,90,294.32,117,258.61,160.36,277.08c40.53,17.27,32.74,55.27,69.73,78.42,51.32,32.12,145.12,8.34,195.33-51.64C462.66,259.37,485,184.07,455.47,147c-27.16-34-71.78-2.74-131.11-42-49.48-32.72-40-68.73-90.51-92.33C189.47-8,144.1,2.05,129.62,5.24Z"/></g></g></svg>